<ttFont>
          <CharString index="0">
            vvcurveto
            -16 11 -14 16 -1 vhcurveto
            16 17 16 14 18 11 1 7 rcurveline
            -9 10 -1 16 13 vvcurveto
            return
          </CharString>
          <CharString index="1">
            -71 -29 -84 -105 callgsubr
            return
          </CharString>
          <CharString index="2">
            -72 -20 callgsubr
            70 -39 47 -65 17 vhcurveto
            -94 -15 -94 -63 -89 callgsubr
            131 88 49 131 hvcurveto
            6 29 rlineto
            -91 19 -45 47 94 -81 callgsubr
            -70 69 -58 67 -23 vhcurveto
            -1 -7 rlineto
            3 -14 -17 2 -14 hhcurveto
            -109 -22 -68 -77 -117 -3 callsubr
            return
          </CharString>
          <CharString index="3">
            -103 callsubr
            -165 hmoveto
            -106 callgsubr
            return
          </CharString>
          <CharString index="4">
            rmoveto
            -106 callgsubr
            return
          </CharString>
          <CharString index="5">
            -20 hstemhm
            52 9 callgsubr
            hintmask 11001111
            286 -105 callsubr
            hintmask 00110000
            return
          </CharString>
          <CharString index="6">
            3 5 -28 -104 callgsubr
            return
          </CharString>
          <CharString index="7">
            -99 callgsubr
            -46 callgsubr
            return
          </CharString>
          <CharString index="8">
            282 666 rmoveto
            -99 -52 -86 -105 -111 vvcurveto
            -61 19 -56 60 -15 vhcurveto
            89 27 78 61 93 -87 callgsubr
            -8 -13 -20 -4 -15 hhcurveto
            -57 -24 31 57 55 25 70 41 38 -27 callgsubr
            2 callgsubr
            hvcurveto
            10 callgsubr
            return
          </CharString>
          <CharString index="9">
            -87 callsubr
            -300 -127 rmoveto
            -109 61 -96 108 vhcurveto
            129 50 80 158 138 -61 callsubr
            return
          </CharString>
          <CharString index="10">
            -20 hstemhm
            -82 68 106 76 241 62 hintmask 1001001110000000
            92 -82 callsubr
            hintmask 1100001110000000
            -76 callgsubr
            hintmask 1010001110000000
            -47 callsubr
            -101 callgsubr
            hintmask 1100001110000000
            -88 callsubr
            -51 callsubr
            -64 -11 -124 -64 vvcurveto
            hintmask 0000110000000000
            return
          </CharString>
          <CharString index="11">
            94 162 rmoveto
            -96 33 -71 95 -10 vhcurveto
            54 27 39 45 30 54 3 -1 rcurveline
            -5 -49 -6 -41 -6 -31 -21 callgsubr
            -7 30 -2 83 41 -39 callgsubr
            -28 -27 callsubr
            vvcurveto
            -56 -2 -70 -5 -71 vhcurveto
            -28 -46 -42 -48 -44 -28 rrcurveto
            -72 13 -1 83 73 vvcurveto
            107 14 137 15 68 12 callsubr
            return
          </CharString>
          <CharString index="12">
            -94 callgsubr
            111 10 182 18 83 vhcurveto
            return
          </CharString>
          <CharString index="13">
            -9 callgsubr
            hintmask 10100110
            -101 callgsubr
            hintmask 11000110
            -93 callgsubr
            return
          </CharString>
          <CharString index="14">
            -88 callsubr
            -38 callgsubr
            return
          </CharString>
          <CharString index="15">
            -81 callsubr
            hintmask 1010100100000000
            -65 callgsubr
            hintmask 0111000100000000
            -84 callsubr
            hintmask 1011000100000000
            -90 callsubr
            return
          </CharString>
          <CharString index="16">
            35 58 -33 35 hhcurveto
            38 16 34 28 24 33 -16 12 rcurveline
            -17 -16 -19 -7 -23 hhcurveto
            -36 -40 15 18 -28 hvcurveto
            -46 -14 -49 -30 -24 -33 rrcurveto
            endchar
          </CharString>
          <CharString index="17">
            -70 413 rmoveto
            8 25 12 35 15 21 rrcurveto
            2 8 12 1 11 hhcurveto
            6 15 -1 -2 6 hvcurveto
            3 -30 2 -42 -30 vvcurveto
            -41 -2 -67 -2 -52 vhcurveto
            -5 -20 -31 -2 -28 hhcurveto
            -26 -30 1 5 -18 hvcurveto
            return
          </CharString>
          <CharString index="18">
            18 callsubr
            hvcurveto
            17 vlineto
            -29 39 -6 39 48 vvcurveto
            15 2 18 4 15 vhcurveto
            -12 3 rlineto
            -27 -67 -14 -73 -71 -16 callsubr
            -48 callsubr
            return
          </CharString>
          <CharString index="19">
            41 31 53 3 -92 callgsubr
            return
          </CharString>
          <CharString index="20">
            rmoveto
            -75 -20 -121 -45 -62 vhcurveto
            -75 callsubr
            83 22 -75 -83 hvcurveto
            return
          </CharString>
          <CharString index="21">
            -103 callsubr
            endchar
          </CharString>
          <CharString index="22">
            -60 -72 -88 callgsubr
            return
          </CharString>
          <CharString index="23">
            -63 callsubr
            21 5 37 2 29 -1 rrcurveto
            27 30 -3 -3 19 hvcurveto
            -4 -70 -8 -70 -9 -43 rrcurveto
            return
          </CharString>
          <CharString index="24">
            -91 -9 -82 -52 -91 vvcurveto
            -86 79 -57 87 vhcurveto
            -84 callgsubr
            -67 -36 38 67 hvcurveto
            return
          </CharString>
          <CharString index="25">
            205 rmoveto
            -119 28 -89 119 -12 vhcurveto
            69 39 46 56 38 67 3 -1 rcurveline
            -6 -62 -7 -56 -8 -38 -57 callgsubr
            137 12 227 23 103 -5 callsubr
            return
          </CharString>
          <CharString index="26">
            283 -15 rmoveto
            26 7 39 3 27 2 rrcurveto
            -5 30 -3 74 49 callgsubr
            12 172 15 64 12 callsubr
            -5 -26 -63 -1 -25 hhcurveto
            return
          </CharString>
          <CharString index="27">
            46 callgsubr
            88 -21 134 -102 callsubr
            return
          </CharString>
          <CharString index="28">
            25 callsubr
            88 -21 134 -100 callgsubr
            return
          </CharString>
          <CharString index="29">
            rmoveto
            12 -10 31 -8 11 vhcurveto
            3 -9 -18 2 -12 hhcurveto
            -31 -43 -67 -48 -52 -25 9 -18 rcurveline
            endchar
          </CharString>
          <CharString index="30">
            -107 callgsubr
            -88 callsubr
            return
          </CharString>
          <CharString index="31">
            44 callsubr
            hintmask 1011000010000000
            -92 callsubr
            hintmask 0000011000000000
            return
          </CharString>
          <CharString index="32">
            -10 -15 -20 -4 -19 hhcurveto
            -74 -29 84 75 85 20 98 42 75 hvcurveto
            10 16 20 3 19 hhcurveto
            return
          </CharString>
          <CharString index="33">
            rmoveto
            -1 12 -13 31 -9 10 -9 2 -18 0 -11 -1 -27 -49 -66 -56 -46 -31 10 -17 rcurveline
            endchar
          </CharString>
          <CharString index="34">
            rmoveto
            -11 -4 -28 -6 -12 -2 -24 -33 -18 -16 -38 -17 5 -16 rcurveline
            15 1 18 3 16 4 rrcurveto
            -43 vlineto
            -84 -6 -106 -9 -60 vhcurveto
            -31 callsubr
            0 -15 callgsubr
            -3 28 0 33 21 vvcurveto
            71 6 145 20 69 vhcurveto
            return
          </CharString>
          <CharString index="35">
            rmoveto
            111 -77 15 12 -51 47 -21 41 -24 65 rlinecurve
            -22 hlineto
            -32 -60 -44 -47 -52 -44 11 -16 rcurveline
            endchar
          </CharString>
          <CharString index="36">
            79 -35 callsubr
            74 -21 36 callgsubr
            hintmask 10101100
            -96 callsubr
            hintmask 11001100
            -53 callsubr
            hintmask 00010000
            return
          </CharString>
          <CharString index="37">
            63 callsubr
            hintmask 10100010
            -55 callgsubr
            hintmask 10100100
            -83 callsubr
            hintmask 01100001
            -74 callgsubr
            hintmask 00011000
            return
          </CharString>
          <CharString index="38">
            322 -15 -70 callgsubr
            return
          </CharString>
          <CharString index="39">
            172 666 rmoveto
            60 -85 -126 47 -85 hhcurveto
            -26 -30 -8 -24 -3 0 -3 1 -4 hvcurveto
            21 -9 19 -11 17 -13 6 2 rcurveline
            19 13 36 10 20 hhcurveto
            5 6 0 -1 4 hvcurveto
            66 -41 40 -60 37 -90 17 -42 18 -44 15 -32 21 -44 18 -41 17 -40 -6 -126 -12 -122 -13 -56 -57 callgsubr
            35 0 42 2 45 vhcurveto
            74 98 107 135 22 120 -29 -8 -46 -5 -29 -1 -4 -5 rcurveline
            5 -11 2 -12 -11 vvcurveto
            -59 -34 -69 -30 -51 vhcurveto
            -50 -83 -53 123 -32 110 -16 81 rlinecurve
            return
          </CharString>
          <CharString index="40">
            52 2 -1 -7 rcurveline
            return
          </CharString>
          <CharString index="41">
            10 43 46 6 39 hhcurveto
            24 45 -3 -5 24 hvcurveto
            71 29 74 72 78 -87 callgsubr
            -19 -40 -41 -5 -44 hhcurveto
            -24 -18 2 4 -23 hvcurveto
            -3 44 -2 32 68 vvcurveto
            return
          </CharString>
          <CharString index="42">
            -9 18 -25 28 -14 9 -18 -9 -31 -28 -12 -18 7 -16 18 -25 12 -12 -7 return
          </CharString>
          <CharString index="43">
            rcurveline
            3 -25 3 -22 7 -24 rrcurveto
            15 hlineto
            50 8 56 36 35 vhcurveto
            -5 9 rlineto
            -4 -15 -17 0 -15 hhcurveto
            return
          </CharString>
          <CharString index="44">
            8 28 48 3 28 hhcurveto
            -3 16 -2 18 16 vvcurveto
            35 5 36 14 55 vhcurveto
            return
          </CharString>
          <CharString index="45">
            rmoveto
            9 18 -52 25 -67 48 -31 43 rlinecurve
            -12 -18 -2 -3 -9 hvcurveto
            -8 -11 -10 -31 -12 vvcurveto
            endchar
          </CharString>
          <CharString index="46">
            vvcurveto
            118 -51 87 -118 vhcurveto
            -28 callgsubr
            return
          </CharString>
          <CharString index="47">
            127 -36 callgsubr
            -98 -5 -105 -9 -110 vhcurveto
            -3 -35 -9 -24 -20 -16 5 -14 rcurveline
            1 6 10 1 6 hhcurveto
            43 49 -26 -30 51 hvcurveto
            27 -16 5 2 return
          </CharString>
          <CharString index="48">
            rmoveto
            -9 -108 -15 -73 -82 -70 10 -15 rcurveline
            58 31 88 66 29 61 rrcurveto
            -6 46 -2 46 46 -39 callgsubr
            rlineto
            return
          </CharString>
          <CharString index="49">
            -4 -17 21 -9 24 -7 20 -5 rlinecurve
            -176 -499 5 -6 rlineto
            return
          </CharString>
          <CharString index="50">
            -177 -15 -64 -33 callsubr
            return
          </CharString>
          <CharString index="51">
            -65 callsubr
            -45 -32 -51 -33 -33 40 callgsubr
            39 64 79 12 74 rrcurveto
            return
          </CharString>
          <CharString index="52">
            vhcurveto
            -51 callgsubr
            return
          </CharString>
          <CharString index="53">
            7 32 73 5 34 hhcurveto
            48 39 -3 -6 34 hvcurveto
            2 19 4 18 6 18 -4 5 rcurveline
            -9 -27 -39 -5 -43 hhcurveto
            -32 -24 2 4 -18 hvcurveto
            -3 37 0 44 30 vvcurveto
            111 11 183 17 83 vhcurveto
            endchar
          </CharString>
          <CharString index="54">
            -10 -59 -36 0 -61 hhcurveto
            -1 40 callsubr
            30 -6 18 -2 rlinecurve
            20 callgsubr
            -52 -9 -100 -51 vvcurveto
            return
          </CharString>
          <CharString index="55">
            41 31 73 -52 callgsubr
            -11 -3 -11 -4 -12 -7 return
          </CharString>
          <CharString index="56">
            3 -46 1 -42 -43 return
          </CharString>
          <CharString index="57">
            -20 hstemhm
            19 callsubr
            hintmask 11001100
            -96 callgsubr
            hintmask 00110000
            return
          </CharString>
          <CharString index="58">
            rmoveto
            hintmask 01001010
            -31 callgsubr
            hintmask 10000110
            -54 callsubr
          </CharString>
          <CharString index="59">
            -22 callgsubr
            146 -48 107 -146 vhcurveto
            return
          </CharString>
          <CharString index="60">
            -2 -7 -13 -1 -11 hhcurveto
            return
          </CharString>
          <CharString index="61">
            -3 25 0 23 28 vvcurveto
            19 19 -1 -2 20 hvcurveto
            2 15 4 21 6 15 -4 4 rcurveline
            -8 -19 -24 -4 -23 hhcurveto
            5 187 10 24 14 43 -6 3 rcurveline
            -16 -8 -47 -7 -17 -2 -38 -91 -51 -94 -74 -85 3 -10 rcurveline
            154 hlineto
            -2 -32 -3 -24 -4 -28 rrcurveto
            12 299 rmoveto
            5 hlineto
            -5 -174 rlineto
            -37 -22 2 3 -27 hvcurveto
            33 51 30 62 23 56 rrcurveto
            return
          </CharString>
          <CharString index="62">
            45 callgsubr
            hstemhm
            115 60 hintmask 10110000
            104 121 -59 callsubr
            hintmask 11010000
            -41 callgsubr
            endchar
          </CharString>
          <CharString index="63">
            -17 callsubr
            74 -21 12 callgsubr
            hintmask 10101000
            11 callgsubr
            hintmask 11001000
            -95 callsubr
            hintmask 10101000
            hintmask 00010000
            return
          </CharString>
          <CharString index="64">
            77 vstem
            251 52 rmoveto
            -27 8 -39 20 -16 19 -1 1 rcurveline
            51 vlineto
            2 171 14 137 15 68 -5 4 rcurveline
            -10 -59 -27 0 -60 11 callsubr
            20 -6 52 callgsubr
            48 callgsubr
            -79 -4 -89 -8 -88 vhcurveto
            -2 -28 -7 -18 -16 -12 4 -12 rcurveline
            1 5 8 1 4 hhcurveto
            48 30 -19 -22 43 hvcurveto
            26 -15 4 2 return
          </CharString>
          <CharString index="65">
            10 34 48 4 35 hhcurveto
            -4 20 -3 22 20 vvcurveto
            43 return
          </CharString>
          <CharString index="66">
            -172 54 callsubr
            60 hintmask 10110000
            11 callgsubr
            hintmask 11010000
            -95 callsubr
            endchar
          </CharString>
          <CharString index="67">
            209 -15 rmoveto
            78 37 63 88 21 85 -21 -7 -27 -3 -22 -1 -4 -4 rcurveline
            1 -8 1 -5 -7 vvcurveto
            -43 -21 -50 -35 -26 vhcurveto
            -100 -25 77 100 85 26 100 48 72 hvcurveto
            -32 callgsubr
            return
          </CharString>
          <CharString index="68">
            6 -25 callgsubr
            return
          </CharString>
          <CharString index="69">
            19 callgsubr
            hintmask 10100100
            11 callgsubr
            hintmask 11000100
            -95 callsubr
            hintmask 10100100
            hintmask 00011000
            return
          </CharString>
          <CharString index="70">
            229 267 rmoveto
            60 -107 53 -117 11 -55 -26 callsubr
            -96 174 rcurveline
            61 62 55 73 28 82 rrcurveto
            -6 -26 -41 -1 -30 hhcurveto
            -3 -4 rlineto
            1 -10 1 -6 -10 vvcurveto
            -38 -30 -54 -25 -31 vhcurveto
            -95 -121 3 102 8 114 15 64 rlinecurve
            return
          </CharString>
          <CharString index="71">
            26 callsubr
            rlinecurve
            12 hlineto
            62 12 69 45 43 vhcurveto
            -6 11 rlineto
            -5 -19 -21 0 -19 hhcurveto
            return
          </CharString>
          <CharString index="72">
            -39 callsubr
            30 -20 return
          </CharString>
          <CharString index="73">
            -22 callsubr
            hintmask 10010000
            -37 callgsubr
          </CharString>
          <CharString index="74">
            vhcurveto
            5 -4 28 7 return
          </CharString>
          <CharString index="75">
            0 14 hhcurveto
            40 44 -4 -6 42 hvcurveto
            3 23 4 17 8 22 -5 6 rcurveline
            -11 -33 -43 -6 -34 hhcurveto
            -20 -29 1 5 -21 hvcurveto
            4 85 7 return
          </CharString>
          <CharString index="76">
            -14 -6 -20 -9 -13 -7 5 -16 rcurveline
            12 36 29 5 46 hhcurveto
            13 13 return
          </CharString>
          <CharString index="77">
            vhcurveto
            6 -5 35 9 return
          </CharString>
          <CharString index="78">
            57 callgsubr
            18 83 vhcurveto
            return
          </CharString>
          <CharString index="79">
            -88 callsubr
            -46 callgsubr
            -95 -6 -114 -5 -94 vhcurveto
            return
          </CharString>
          <CharString index="80">
            -7 -35 -3 -29 -2 rlinecurve
            7 -30 2 -83 -41 return
          </CharString>
          <CharString index="81">
            5 -2 rcurveline
            27 6 45 3 28 2 -23 31 -45 74 -19 35 return
          </CharString>
          <CharString index="82">
            -19 callsubr
            62 return
          </CharString>
          <CharString index="83">
            2 15 19 2 15 hhcurveto
            29 31 -5 -12 26 hvcurveto
            3 -26 4 -22 7 -24 rrcurveto
            15 hlineto
            2 45 6 50 31 30 return
          </CharString>
          <CharString index="84">
            hstemhm
            38 47 12 23 -23 37 141 68 51 82 return
          </CharString>
          <CharString index="85">
            rmoveto
            38 39 -3 -38 -15 -6 -12 -7 -8 hvcurveto
            -3 -5 -11 -2 -10 hhcurveto
            -25 -24 11 14 -16 hvcurveto
            -4 -2 rlineto
            return
          </CharString>
          <CharString index="86">
            18 22 41 0 34 hhcurveto
            31 65 -3 -7 33 hvcurveto
            5 9 rlineto
            -5 9 -3 9 12 vvcurveto
            27 5 22 10 27 vhcurveto
            -12 5 -11 -14 -9 -17 -8 -17 rlinecurve
            -12 -23 -24 -1 -27 hhcurveto
            -22 -25 1 2 -20 hvcurveto
            return
          </CharString>
          <CharString index="87">
            -10 -60 -37 0 -60 -4 callgsubr
            0 -47 -39 vvcurveto
            -135 -11 -177 -17 -64 -15 callsubr
            -5 31 -3 82 41 vvcurveto
            49 vlineto
            return
          </CharString>
          <CharString index="88">
            -74 68 117 return
          </CharString>
          <CharString index="89">
            rmoveto
            69 2 -30 54 -69 hhcurveto
            -54 -17 -64 -57 -56 vvcurveto
            -11 9 -11 13 vhcurveto
            10 12 11 10 12 10 1 5 rcurveline
            -6 6 -2 5 11 vvcurveto
            7 4 16 1 4 vhcurveto
            6 12 16 3 12 hhcurveto
            return
          </CharString>
          <CharString index="90">
            -172 -35 callsubr
            return
          </CharString>
          <CharString index="91">
            vvcurveto
            -134 61 -119 134 vhcurveto
            return
          </CharString>
          <CharString index="92">
            -48 callgsubr
            29 callgsubr
            return
          </CharString>
          <CharString index="93">
            -23 -7 -29 -3 -25 -1 -5 -5 rcurveline
            2 -9 1 -7 -8 vvcurveto
            return
          </CharString>
          <CharString index="94">
            16 callsubr
            13 hhcurveto
            23 38 -8 -7 22 hvcurveto
            20 -6 rlineto
            152 38 70 129 156 vvcurveto
            132 -51 90 -132 vhcurveto
            return
          </CharString>
          <CharString index="95">
            178 472 rmoveto
            27 -1 46 -9 24 -10 14 -6 -64 callsubr
            return
          </CharString>
          <CharString index="96">
            37 callsubr
            137 283 rmoveto
            125 143 -18 13 -56 -58 -70 -56 -70 -36 rlinecurve
            -2 -20 64 -42 49 -55 45 -61 rlinecurve
            22 14 rlineto
            return
          </CharString>
          <CharString index="97">
            rmoveto
            159 7 154 31 144 -55 callsubr
            return
          </CharString>
          <CharString index="98">
            rmoveto
            23 2 15 64 22 85 36 70 rlinecurve
            -11 13 -18 1 -37 -10 -17 -8 rlinecurve
            return
          </CharString>
          <CharString index="99">
            -6 5 rlineto
            return
          </CharString>
          <CharString index="100">
            -8 callgsubr
            41 return
          </CharString>
          <CharString index="101">
            hhcurveto
            -2 -17 2 callsubr
            rlinecurve
            return
          </CharString>
          <CharString index="102">
            vhcurveto
            -8 callsubr
            return
          </CharString>
          <CharString index="103">
            8 -20 hstemhm
            -25 callsubr
            return
          </CharString>
          <CharString index="104">
            vvcurveto
            -134 100 -75 134 vhcurveto
            return
          </CharString>
          <CharString index="105">
            -19 -8 -34 -16 -17 -10 5 -16 rcurveline
            16 49 39 7 62 hhcurveto
            18 18 -1 -2 15 hvcurveto
            4 17 -18 5 -21 9 -16 11 rlinecurve
            return
          </CharString>
          <CharString index="106">
            504 rmoveto
            2 callsubr
            rrcurveto
            58 callgsubr
            return
          </CharString>
          <CharString index="107">
            -58 -15 53 0 226 272 -20 return
          </CharString>
          <CharString index="108">
            3 10 6 13 6 9 rlinecurve
            -3 4 return
          </CharString>
          <CharString index="109">
            17 -7 34 20 callsubr
            return
          </CharString>
          <CharString index="110">
            81 37 92 112 18 89 -14 callsubr
            -45 -33 -64 -39 -24 vhcurveto
            return
          </CharString>
          <CharString index="111">
            125 rmoveto
            18 -14 61 61 61 55 76 42 rlinecurve
            2 20 -62 36 -56 56 -42 58 rlinecurve
            -18 -13 87 -143 rlineto
            return
          </CharString>
          <CharString index="112">
            -7 callsubr
            8 -20 return
          </CharString>
          <CharString index="113">
            hstemhm
            118 182 0 67 return
          </CharString>
          <CharString index="114">
            rmoveto
            -111 77 -15 -12 51 -47 21 -41 24 -65 rlinecurve
            22 hlineto
            32 60 44 47 52 44 -11 16 rcurveline
            endchar
          </CharString>
          <CharString index="115">
            1 71 vhcurveto
            -5 1 -14 -10 -21 -10 -17 -7 rlinecurve
            3 -106 return
          </CharString>
          <CharString index="116">
            -5 -27 -49 -3 -35 hhcurveto
            return
          </CharString>
          <CharString index="117">
            48 callsubr
            29 2 return
          </CharString>
          <CharString index="118">
            hhcurveto
            -2 40 callsubr
            return
          </CharString>
          <CharString index="119">
            vhcurveto
            38 callsubr
            return
          </CharString>
          <CharString index="120">
            hvcurveto
            68 183 54 68 8 -5 9 -7 5 hvcurveto
            -6 -19 -24 -4 -22 hhcurveto
            -4 -7 rlineto
            -30 -20 -45 -30 return
          </CharString>
          <CharString index="121">
            rmoveto
            39 -20 13 -62 -49 vvcurveto
            -44 -17 -89 -51 -17 vhcurveto
            -38 18 -14 59 47 vvcurveto
            45 16 88 52 24 vhcurveto
            return
          </CharString>
          <CharString index="122">
            6 22 callsubr
            return
          </CharString>
          <CharString index="123">
            -4 -32 -7 -20 -11 -12 5 -10 rcurveline
            2 12 9 1 return
          </CharString>
          <CharString index="124">
            hhcurveto
            23 callgsubr
            121 9 184 18 114 vhcurveto
            2 return
          </CharString>
          <CharString index="125">
            -92 -36 109 92 return
          </CharString>
          <CharString index="126">
            40 78 222 78 return
          </CharString>
          <CharString index="127">
            -6 18 -2 return
          </CharString>
          <CharString index="128">
            6 18 20 3 19 hhcurveto
            62 20 -47 -62 -76 -40 -36 -76 hvcurveto
            -2 -31 rlineto
            104 94 63 104 return
          </CharString>
          <CharString index="129">
            -21 629 37 -4 callsubr
            return
          </CharString>
          <CharString index="130">
            41 -4 callsubr
            207 68 return
          </CharString>
          <CharString index="131">
            -20 hstemhm
            -4 68 279 70 return
          </CharString>
          <CharString index="132">
            70 -15 69 542 70 return
          </CharString>
          <CharString index="133">
            3 -32 7 -34 9 -30 return
          </CharString>
          <CharString index="134">
            36 2 rlinecurve
            return
          </CharString>
          <CharString index="135">
            30 -2 83 return
          </CharString>
          <CharString index="136">
            rmoveto
            -65 callsubr
            return
          </CharString>
          <CharString index="137">
            3 6 -113 hvcurveto
            return
          </CharString>
          <CharString index="138">
            rmoveto
            -16 callgsubr
            -37 -37 0 1 -37 hvcurveto
            1 vlineto
            return
          </CharString>
          <CharString index="139">
            -33 10 -46 24 -20 24 -1 1 rcurveline
            -1 26 0 25 19 vvcurveto
            2 156 return
          </CharString>
          <CharString index="140">
            409 422 rmoveto
            83 -65 25 -83 vhcurveto
            return
          </CharString>
          <CharString index="141">
            rcurveline
            35 callsubr
            3 -4 rcurveline
            return
          </CharString>
          <CharString index="142">
            -9 -13 -9 -9 -10 -10 return
          </CharString>
          <CharString index="143">
            22 -22 23 -22 -22 -23 -23 -22 -22 23 -24 22 22 22 24 22 vhcurveto
            return
          </CharString>
          <CharString index="144">
            132 -21 328 -20 hstem
            return
          </CharString>
          <CharString index="145">
            -5 4 rlineto
            return
          </CharString>
          <CharString index="146">
            2 rlineto
            5 vlineto
            -4 9 -3 12 -2 10 -25 -3 -38 -1 -25 -1 return
          </CharString>
          <CharString index="147">
            -17 17 -7 return
          </CharString>
          <CharString index="148">
            6 callgsubr
            hstemhm
            67 59 -59 250 -45 63 return
          </CharString>
          <CharString index="149">
            35 12 -24 -34 -100 -139 -63 -37 -127 hvcurveto
            8 -4 rlineto
            return
          </CharString>
          <CharString index="150">
            -55 -19 -76 rlinecurve
            9 -9 17 -9 13 -3 rrcurveto
            5 hlineto
            43 return
          </CharString>
          <CharString index="151">
            -20 6 callsubr
            return
          </CharString>
          <CharString index="152">
            -194 -21 926 -20 return
          </CharString>
          <CharString index="153">
            -194 -21 184 -20 return
          </CharString>
          <CharString index="154">
            288 651 rmoveto
            return
          </CharString>
          <CharString index="155">
            69 callgsubr
            3 return
          </CharString>
          <CharString index="156">
            30 callsubr
            -29 -44 rlineto
            hintmask 10000000
            54 callgsubr
            return
          </CharString>
          <CharString index="157">
            5 -38 1 return
          </CharString>
          <CharString index="158">
            440 68 callgsubr
            return
          </CharString>
          <CharString index="159">
            33 -20 hstemhm
            return
          </CharString>
          <CharString index="160">
            531 rmoveto
            -10 -60 return
          </CharString>
          <CharString index="161">
            65 callgsubr
            108 return
          </CharString>
          <CharString index="162">
            vhcurveto
            -13 6 -24 -35 -15 -15 -32 -29 rlinecurve
            return
          </CharString>
          <CharString index="163">
            106 28 126 52 93 return
          </CharString>
          <CharString index="164">
            3 29 callgsubr
            -7 30 return
          </CharString>
          <CharString index="165">
            rmoveto
            3 callgsubr
            return
          </CharString>
          <CharString index="166">
            -20 35 -20 hstemhm
            return
          </CharString>
          <CharString index="167">
            hlineto
            10 -7 46 9 rlineto
            -5 53 -4 return
          </CharString>
          <CharString index="168">
            356 -21 -21 56 146 -41 41 return
          </CharString>
          <CharString index="169">
            52 79 92 53 42 84 rrcurveto
            endchar
          </CharString>
          <CharString index="170">
            -20 24 callgsubr
            return
          </CharString>
          <CharString index="171">
            -74 6 callgsubr
            return
          </CharString>
          <CharString index="172">
            83 41 57 callgsubr
            return
          </CharString>
          <CharString index="173">
            -159 -21 790 41 8 -20 return
          </CharString>
          <CharString index="174">
            -10 callgsubr
            27 -44 return
          </CharString>
          <CharString index="175">
            -21 134 -20 return
          </CharString>
          <CharString index="176">
            2 rrcurveto
            -7 return
          </CharString>
        <CharString name=".notdef">
          -264 endchar
        </CharString>
        <CharString name=".null">
          -444 endchar
        </CharString>
        <CharString name="A">
          84 -30 callgsubr
          hstemhm
          -4 68 279 70 hintmask 10101110
          -69 callsubr
          hintmask 10110110
          9 callsubr
          hintmask 10101110
          -85 callsubr
          hintmask 10110110
          -67 callgsubr
          hintmask 01110110
          -83 callgsubr
          hintmask 10110110
          -90 callgsubr
          endchar
        </CharString>
        <CharString name="AE">
          212 -15 65 -30 -21 328 41 246 37 12 -20 hstemhm
          -1 68 256 71 hintmask 10110110
          394 273 rmoveto
          1 51 rlineto
          3 13 20 -32 callsubr
          86 11 64 rrcurveto
          3 17 21 2 19 hhcurveto
          36 39 -6 -15 33 hvcurveto
          26 callsubr
          rrcurveto
          12 hlineto
          2 55 6 63 39 37 rrcurveto
          hintmask 10101110
          -6 11 rlineto
          hintmask 10110110
          -10 -69 -112 -2 -86 hhcurveto
          -60 -129 -88 callgsubr
          -52 callsubr
          -211 -596 rcurveline
          7 -8 rlineto
          hintmask 01110110
          -42 callsubr
          5 47 21 75 vhcurveto
          27 97 rlineto
          3 23 37 2 24 hhcurveto
          22 33 -2 -3 18 hvcurveto
          -3 -71 rlineto
          hintmask 10110110
          -132 -6 16 -135 132 hhcurveto
          3 callsubr
          -111 0 92 131 hvcurveto
          -66 99 rmoveto
          -5 -21 -26 -2 -23 hhcurveto
          -21 -32 2 5 -20 hvcurveto
          15 50 19 57 22 64 8 24 10 28 12 17 rrcurveto
          2 10 9 63 callgsubr
          8 11 -1 -2 8 hvcurveto
          6 -27 0 -50 -3 -58 rrcurveto
          endchar
        </CharString>
        <CharString name="Aacute">
          -85 callgsubr
          344 532 -78 callsubr
        </CharString>
        <CharString name="Acircumflex">
          80 -30 callgsubr
          100 -21 167 -103 callgsubr
          169 521 -71 callgsubr
        </CharString>
        <CharString name="Adieresis">
          80 -30 callgsubr
          117 -21 123 -103 callgsubr
          309 527 -102 callgsubr
        </CharString>
        <CharString name="Agrave">
          -85 callgsubr
          179 457 -62 callsubr
        </CharString>
        <CharString name="Aring">
          80 -30 callgsubr
          65 35 111 35 hstemhm
          -4 68 165 50 64 70 -35 50 hintmask 0000011010100000
          327 850 -77 callgsubr
          hintmask 1010100101000000
          93 -783 -70 callgsubr
          hintmask 1011000101000000
          9 callsubr
          hintmask 1010100101000000
          -85 callsubr
          hintmask 1011000101000000
          -67 callgsubr
          hintmask 0111000101000000
          -83 callgsubr
          hintmask 1011000101000000
          -90 callgsubr
          endchar
        </CharString>
        <CharString name="Atilde">
          80 -30 callgsubr
          108 65 -32 32 33 24 callsubr
          hintmask 1010100011000000
          -69 callsubr
          hintmask 1011000011000000
          9 callsubr
          hintmask 1010100011000000
          -85 callsubr
          hintmask 1011000011000000
          -67 callgsubr
          hintmask 0111000011000000
          -83 callgsubr
          hintmask 1011000011000000
          -90 callgsubr
          hintmask 0000001100000000
          48 480 rmoveto
          16 15 19 8 22 hhcurveto
          hintmask 0000010100000000
          -91 callsubr
        </CharString>
        <CharString name="B">
          58 15 callsubr
          170 84 -51 51 -51 84 hintmask 11011100
          278 651 rmoveto
          hintmask 10111001
          -65 -72 1 7 -60 hvcurveto
          -49 callgsubr
          112 30 118 107 115 vvcurveto
          94 -67 33 -94 vhcurveto
          4 vlineto
          hintmask 11011100
          79 33 49 53 85 vvcurveto
          83 -66 29 -83 vhcurveto
          -17 -37 rmoveto
          63 19 -42 -63 -40 -9 -38 -26 -29 hvcurveto
          -23 -17 -39 -6 -28 -2 -4 -30 rcurveline
          hintmask 11011010
          107 55 -42 -107 -34 -10 -49 -16 -30 hvcurveto
          -22 -26 -33 -11 -34 17 callsubr
          21 21 1 19 hhcurveto
          endchar
        </CharString>
        <CharString name="C">
          -19 -115 65 701 59 callsubr
          33 82 hintmask 11010000
          -43 callgsubr
          hintmask 10110000
          15 callgsubr
          endchar
        </CharString>
        <CharString name="CR">
          -279 endchar
        </CharString>
        <CharString name="Ccedilla">
          -22 -284 -21 37 -20 173 65 -24 -20 745 59 callsubr
          33 82 hintmask 00101010
          -43 callgsubr
          hintmask 00100110
          15 callgsubr
          hintmask 01010000
          -60 -72 -34 callsubr
        </CharString>
        <CharString name="D">
          85 15 callsubr
          239 79 hintmask 10111100
          81 659 rmoveto
          -49 callgsubr
          189 50 72 158 193 vvcurveto
          hintmask 11011100
          164 -49 101 -164 vhcurveto
          hintmask 10111100
          -65 -72 1 7 -60 hvcurveto
          hintmask 11011100
          184 -45 rmoveto
          127 20 -153 -127 -76 -18 -107 -39 -66 hvcurveto
          -22 -24 -42 -11 -32 17 callsubr
          23 23 1 19 hhcurveto
          endchar
        </CharString>
        <CharString name="E">
          93 -72 61 609 68 hstem
          24 9 callgsubr
          vstem
          258 -105 callsubr
          endchar
        </CharString>
        <CharString name="Eacute">
          -80 callsubr
          175 880 -78 callsubr
        </CharString>
        <CharString name="Ecircumflex">
          46 callgsubr
          73 -21 167 -102 callsubr
          15 869 -71 callgsubr
        </CharString>
        <CharString name="Edieresis">
          46 callgsubr
          90 -21 123 -102 callsubr
          155 875 -102 callgsubr
        </CharString>
        <CharString name="Egrave">
          -80 callsubr
          48 805 -62 callsubr
        </CharString>
        <CharString name="Eth">
          85 6 -21 341 26 273 37 -11 -20 hstemhm
          111 62 239 79 hintmask 11101100
          7 639 rmoveto
          22 -8 41 -8 33 -3 rrcurveto
          7 -47 1 -66 -50 vvcurveto
          -31 -1 -36 -1 -37 vhcurveto
          -75 -2 35 callsubr
          rlinecurve
          3 -4 21 3 39 4 39 2 rlinecurve
          -3 -76 -5 -81 -7 -68 -19 callgsubr
          189 50 72 158 193 vvcurveto
          164 -49 112 -164 vhcurveto
          hintmask 11011100
          -69 -92 -11 -109 hhcurveto
          249 -599 rmoveto
          23 callgsubr
          39 1 46 2 48 vhcurveto
          114 2 0 callgsubr
          -41 -2 5 92 7 96 11 70 rlinecurve
          hintmask 11101100
          6 17 26 5 22 hhcurveto
          127 20 -164 -127 -76 -18 -107 -39 -66 hvcurveto
          -22 -24 -42 -11 -32 hhcurveto
          endchar
        </CharString>
        <CharString name="Euro">
          -56 6 -21 240 31 42 31 209 -20 hstem
          73 71 vstem
          73 175 rmoveto
          -88 39 -84 79 -18 vhcurveto
          76 52 57 90 27 91 -23 10 rcurveline
          -22 -65 -37 -59 -53 -42 rrcurveto
          -53 23 -19 74 64 vvcurveto
          142 4 0 callgsubr
          -70 -3 1 13 1 14 2 14 rlinecurve
          138 4 0 callgsubr
          -62 -3 9 53 15 51 22 45 rlinecurve
          -12 callgsubr
          -70 -48 -47 -78 -24 -87 -44 -2 34 callsubr
          14 2 22 2 25 1 -3 -13 -2 -14 -2 -14 -29 -1 34 callsubr
          51 5 rlineto
          -1 -15 -1 -15 -14 vvcurveto
          endchar
        </CharString>
        <CharString name="F">
          -27 6 -21 342 41 230 50 28 -20 hstem
          -25 callsubr
          vstem
          307 648 rmoveto
          -65 -84 4 11 -67 hvcurveto
          -76 -29 -89 -85 -81 vvcurveto
          -16 11 -14 16 -1 vhcurveto
          16 17 16 14 18 11 1 7 rcurveline
          -9 10 -1 16 13 vvcurveto
          14 6 23 6 12 vhcurveto
          -93 callgsubr
          39 1 46 2 47 vhcurveto
          3 13 19 -32 callsubr
          85 11 64 rrcurveto
          -6 34 39 -4 34 hhcurveto
          16 25 1 5 16 hvcurveto
          3 -34 7 -41 10 -32 rrcurveto
          12 hlineto
          1 65 13 56 35 50 -9 8 rcurveline
          -27 -36 -51 -1 -42 hhcurveto
          endchar
        </CharString>
        <CharString name="G">
          34 -200 65 786 59 callsubr
          38 82 201 64 hintmask 11011000
          321 61 rmoveto
          -63 -9 -84 -32 -43 vhcurveto
          -5 -9 -12 -1 -11 hhcurveto
          -21 -21 4 13 -17 hvcurveto
          -7 -1 -12 -17 -19 -20 -18 -14 rlinecurve
          -19 16 -11 19 77 104 84 67 36 vhcurveto
          1 99 6 107 12 99 2 19 5 21 8 18 -10 7 rcurveline
          -50 -37 -70 1 -61 10 -2 -11 rcurveline
          28 -14 32 -13 31 -9 rrcurveto
          4 -22 1 -23 -22 vvcurveto
          -76 vlineto
          -20 -22 -35 -18 -30 -6 rrcurveto
          -94 26 -23 92 97 vvcurveto
          106 35 130 59 89 vhcurveto
          34 39 -29 callgsubr
          hintmask 10111000
          -31 -54 5 10 -30 hvcurveto
          -143 -97 -71 -176 -173 vvcurveto
          -116 58 -105 116 -14 vhcurveto
          31 13 56 46 22 27 rrcurveto
          endchar
        </CharString>
        <CharString name="H">
          173 6 -21 350 37 238 41 140 68 hstem
          -19 callsubr
          67 258 62 vstem
          523 651 rmoveto
          9 51 18 43 26 34 rrcurveto
          5 callgsubr
          -78 -150 -139 -71 -29 hvcurveto
          8 -37 3 -103 -52 -23 -1 -26 -27 vvcurveto
          -7 -43 -42 -2 -42 hhcurveto
          -43 -44 3 7 -43 hvcurveto
          6 106 13 98 14 63 -6 5 rcurveline
          -2 -7 -13 -1 -11 hhcurveto
          -30 -35 3 5 -28 -97 callgsubr
          39 1 58 2 39 vhcurveto
          5 43 46 2 43 hhcurveto
          43 39 -2 -5 43 hvcurveto
          -4 -124 -12 -140 -16 -74 -57 callgsubr
          134 5 208 20 117 vhcurveto
          endchar
        </CharString>
        <CharString name="I">
          6 -21 625 41 -4 callsubr
          hintmask 11011000
          -61 callgsubr
          hintmask 10111000
          -101 callgsubr
          hintmask 11011000
          -93 callgsubr
          endchar
        </CharString>
        <CharString name="IJ">
          140 -159 -21 186 -21 625 41 -4 callsubr
          45 68 106 73 hintmask 01101100
          -61 callgsubr
          hintmask 01011100
          -101 callgsubr
          hintmask 01101100
          -93 callgsubr
          hintmask 10100011
          219 -38 -44 callgsubr
          hintmask 10010011
          -101 callgsubr
          hintmask 10100011
          -28 callsubr
          endchar
        </CharString>
        <CharString name="Iacute">
          -69 callgsubr
          104 616 -78 callsubr
        </CharString>
        <CharString name="Icircumflex">
          5 callsubr
          100 -21 167 -20 hstemhm
          -25 callsubr
          hintmask 11000110
          173 192 -94 callsubr
          hintmask 00011000
          -46 605 -71 callgsubr
        </CharString>
        <CharString name="Idieresis">
          5 callsubr
          117 38 callgsubr
          -25 callsubr
          hintmask 00011000
          274 803 -104 callsubr
          hintmask 11000110
          64 -611 -94 callsubr
          endchar
        </CharString>
        <CharString name="Igrave">
          -69 callgsubr
          33 541 -62 callsubr
        </CharString>
        <CharString name="Itilde">
          5 callsubr
          108 65 -32 32 33 -20 hstemhm
          -25 callsubr
          hintmask 11000011
          -61 callgsubr
          hintmask 10100011
          -101 callgsubr
          hintmask 11000011
          -93 callgsubr
          hintmask 00001100
          -160 564 rmoveto
          16 15 19 8 22 hhcurveto
          hintmask 00010100
          -91 callsubr
        </CharString>
        <CharString name="J">
          66 callsubr
          hstemhm
          -74 68 106 73 hintmask 11011000
          100 154 -44 callgsubr
          hintmask 10111000
          -101 callgsubr
          hintmask 11011000
          -28 callsubr
          endchar
        </CharString>
        <CharString name="Jcircumflex">
          66 callsubr
          100 -21 167 4 callgsubr
          106 73 hintmask 11000110
          100 154 -44 callgsubr
          hintmask 10100110
          -101 callgsubr
          hintmask 11000110
          -28 callsubr
          hintmask 00011000
          27 643 -71 callgsubr
        </CharString>
        <CharString name="K">
          82 -104 -21 735 41 9 -20 hstemhm
          -19 callsubr
          67 0 185 hintmask 10111000
          401 1 rmoveto
          -55 51 141 -71 96 hhcurveto
          26 30 8 24 3 0 3 -1 4 hvcurveto
          -21 9 -19 11 -17 13 -6 -2 rcurveline
          -19 -13 -36 -10 -20 hhcurveto
          -5 -6 0 1 -4 hvcurveto
          -85 57 -50 102 -51 94 -30 56 -46 82 -41 84 74 78 70 85 35 102 rrcurveto
          hintmask 11010100
          -7 -33 -39 -2 -36 hhcurveto
          -4 -5 rlineto
          1 -12 1 -7 -11 vvcurveto
          -54 -35 -54 -46 -61 vhcurveto
          -107 -141 3 76 6 106 13 98 14 63 rlinecurve
          -51 callgsubr
          -30 -35 3 5 -28 hvcurveto
          -99 callgsubr
          hintmask 11011000
          -38 callgsubr
          -59 callgsubr
          rlinecurve
          -54 callgsubr
          65 vlineto
          71 83 70 -126 68 -140 19 -73 rlinecurve
          endchar
        </CharString>
        <CharString name="L">
          -40 1 41 -36 -21 625 23 callsubr
          hintmask 10101110
          173 192 -10 callsubr
          hintmask 10011110
          -101 callgsubr
          hintmask 01101110
          -93 callsubr
          rlineto
          hintmask 10101110
          -66 callsubr
          endchar
        </CharString>
        <CharString name="Ldotaccent">
          -40 1 41 -36 -21 321 13 callgsubr
          222 23 callsubr
          hintmask 1000101110000000
          173 192 -10 callsubr
          hintmask 1000011110000000
          -101 callgsubr
          hintmask 0100101110000000
          -93 callsubr
          rlineto
          hintmask 1000101110000000
          -66 callsubr
          hintmask 0011000000000000
          200 161 -86 callsubr
        </CharString>
        <CharString name="Lslash">
          12 1 41 -36 -21 287 -21 198 -20 181 23 callsubr
          hintmask 0011000000000000
          108 341 31 callgsubr
          69 35 22 callgsubr
          hintmask 1000101110000000
          -5 -185 -10 callsubr
          hintmask 1000011110000000
          -101 callgsubr
          hintmask 0100101110000000
          -93 callsubr
          rlineto
          hintmask 1000101110000000
          -66 callsubr
          endchar
        </CharString>
        <CharString name="M">
          252 -7 callsubr
          14 -20 hstemhm
          -51 68 511 65 hintmask 11011000
          253 664 rmoveto
          -10 -17 -20 -3 -21 hhcurveto
          -31 -29 3 5 -31 -104 callgsubr
          41 31 63 -52 callgsubr
          -11 -3 -10 -4 -13 -8 -19 -155 -69 -321 -41 -121 6 -5 rcurveline
          34 8 33 5 36 1 1 108 18 184 37 223 4 1 rcurveline
          1 vlineto
          48 -144 52 -160 -93 vvcurveto
          -12 -1 -10 -1 -11 vhcurveto
          12 -8 27 17 29 16 31 10 rlinecurve
          4 47 9 58 113 316 rrcurveto
          4 hlineto
          8 -68 3 -52 -99 vvcurveto
          -123 -9 -136 -14 -75 vhcurveto
          7 -5 34 8 32 5 27 callsubr
          -11 46 -10 116 113 vvcurveto
          136 5 159 17 90 vhcurveto
          hintmask 10111000
          -7 5 rlineto
          hintmask 11011000
          -8 -27 -29 -6 -28 hhcurveto
          -13 -15 1 2 -13 hvcurveto
          -3 -7 rlineto
          2 -4 1 -6 -7 vvcurveto
          -11 -2 -10 -4 -13 vhcurveto
          -95 -304 rlineto
          -14 -46 -3 -19 -16 vvcurveto
          -7 -2 -31 98 rlineto
          -70 222 -4 54 31 vvcurveto
          14 2 17 4 14 vhcurveto
          endchar
        </CharString>
        <CharString name="N">
          62 callgsubr
          hstemhm
          -19 callsubr
          45 293 43 hintmask 11011100
          -91 callgsubr
          hintmask 10111100
          -8 callsubr
          hintmask 11011100
          -26 callgsubr
          endchar
        </CharString>
        <CharString name="Nacute">
          62 callgsubr
          108 18 callgsubr
          45 293 43 hintmask 11000111
          -91 callgsubr
          hintmask 10100111
          -8 callsubr
          hintmask 11000111
          -26 callgsubr
          hintmask 00011000
          291 195 -78 callsubr
        </CharString>
        <CharString name="Ntilde">
          62 callgsubr
          101 65 -32 32 33 -20 hstemhm
          -19 callsubr
          45 293 43 hintmask 1100001110000000
          -91 callgsubr
          hintmask 1010001110000000
          35 callgsubr
          -26 callgsubr
          hintmask 0000110000000000
          1 143 rmoveto
          16 15 19 8 22 hhcurveto
          hintmask 0001010000000000
          -91 callsubr
        </CharString>
        <CharString name="O">
          25 callsubr
          -23 callsubr
          hintmask 11101110
          -99 callsubr
          hintmask 11110110
          -89 callsubr
          endchar
        </CharString>
        <CharString name="OE">
          232 -15 69 273 41 246 37 15 -20 hstemhm
          38 82 224 70 hintmask 11101100
          485 -15 rmoveto
          3 callsubr
          -95 15 -19 95 3 97 2 67 rcurveline
          3 13 19 -32 callsubr
          86 11 64 rrcurveto
          3 17 21 2 19 hhcurveto
          36 39 -6 -15 33 hvcurveto
          26 callsubr
          rrcurveto
          12 hlineto
          2 55 6 63 39 37 -6 11 rcurveline
          -10 -44 -90 -2 -45 hhcurveto
          hintmask 11011100
          -66 -82 6 9 -68 hvcurveto
          -162 -66 -82 -188 -174 -16 callsubr
          53 22 45 35 36 45 rrcurveto
          3 hlineto
          19 -55 38 -39 58 -8 rrcurveto
          -172 86 rmoveto
          -12 -19 -23 -5 -23 hhcurveto
          18 callsubr
          56 callsubr
          hvcurveto
          -5 callgsubr
          30 28 -7 -12 28 hvcurveto
          3 -40 -1 -40 -2 -40 -13 -313 rcurveline
          -1 -25 -8 -28 -16 -20 rrcurveto
          endchar
        </CharString>
        <CharString name="Oacute">
          -79 callsubr
          172 142 -78 callsubr
        </CharString>
        <CharString name="Ocircumflex">
          25 callsubr
          73 -21 167 -100 callgsubr
          9 131 -71 callgsubr
        </CharString>
        <CharString name="Odieresis">
          25 callsubr
          90 -21 123 -100 callgsubr
          170 137 -102 callgsubr
        </CharString>
        <CharString name="Ograve">
          -79 callsubr
          44 67 -62 callsubr
        </CharString>
        <CharString name="Oslash">
          70 -66 -21 93 -21 681 -20 93 -20 hstem
          38 82 274 82 vstem
          38 238 rmoveto
          -85 24 -78 52 -47 vhcurveto
          -40 -91 6 -9 11 -10 9 -5 rlinecurve
          5 hlineto
          35 96 rlineto
          -15 26 31 -9 36 hhcurveto
          -22 callgsubr
          105 -25 85 -69 39 vhcurveto
          14 35 13 35 11 24 -4 3 rcurveline
          -12 -4 -14 -2 -12 -1 -25 -77 rcurveline
          7 -21 -23 4 -27 hhcurveto
          60 callgsubr
          356 158 rmoveto
          2 callgsubr
          vhcurveto
          10 callgsubr
          -33 -25 13 22 -20 hvcurveto
          180 470 rlineto
          33 -37 11 -63 -63 vvcurveto
          -274 -141 rmoveto
          56 callsubr
          vhcurveto
          -5 callgsubr
          25 20 -6 -11 17 hvcurveto
          -177 -461 rlineto
          -21 39 -9 51 47 vvcurveto
          endchar
        </CharString>
        <CharString name="Otilde">
          25 callsubr
          81 65 -32 32 33 -20 -23 callsubr
          hintmask 1100010111000000
          -99 callsubr
          hintmask 1100011011000000
          -89 callsubr
          hintmask 0001100000000000
          -98 90 rmoveto
          16 15 19 8 22 hhcurveto
          hintmask 0010100000000000
          -91 callsubr
        </CharString>
        <CharString name="P">
          27 6 -21 327 30 272 37 -4 callsubr
          200 84 hintmask 11101110
          47 callsubr
          hintmask 11011110
          -95 callgsubr
          hintmask 11101110
          2 23 25 1 23 hhcurveto
          78 24 -52 32 callgsubr
          24 -103 hvcurveto
          endchar
        </CharString>
        <CharString name="Q">
          70 -244 52 92 154 542 70 hstem
          38 82 274 82 vstem
          8 -166 rmoveto
          42 40 47 24 56 hhcurveto
          85 105 -86 -58 63 13 callsubr
          -82 -147 134 13 -82 vhcurveto
          -39 -8 -37 -14 -34 -21 -5 6 rcurveline
          35 31 56 18 44 18 rrcurveto
          -48 callsubr
          60 callgsubr
          -114 44 -104 96 -27 vhcurveto
          -73 -33 -60 -49 -51 -64 rrcurveto
          400 549 rmoveto
          2 callgsubr
          vhcurveto
          10 callgsubr
          18 callsubr
          56 callsubr
          -27 callgsubr
          hvcurveto
          endchar
        </CharString>
        <CharString name="R">
          82 15 callsubr
          200 84 hintmask 11011100
          47 callsubr
          hintmask 10111100
          -95 callgsubr
          hintmask 11011100
          -80 callgsubr
          endchar
        </CharString>
        <CharString name="Racute">
          82 6 -21 629 37 8 -20 115 18 callgsubr
          62 200 84 hintmask 11000111
          47 callsubr
          hintmask 10100111
          -95 callgsubr
          hintmask 11000111
          -80 callgsubr
          hintmask 00011000
          183 157 -78 callsubr
        </CharString>
        <CharString name="Rcaron">
          82 6 -21 629 37 8 -20 100 -21 167 -20 hstemhm
          -25 callsubr
          200 84 hintmask 11000111
          47 callsubr
          hintmask 10100111
          -95 callgsubr
          hintmask 11000111
          -80 callgsubr
          hintmask 00011000
          11 155 8 callgsubr
        </CharString>
        <CharString name="Rcommaaccent">
          82 46 callsubr
          57 22 callsubr
          200 84 hintmask 00110111
          47 callsubr
          hintmask 00101111
          -95 callgsubr
          hintmask 00110111
          -80 callgsubr
          hintmask 11000000
          51 -735 -60 callgsubr
        </CharString>
        <CharString name="S">
          -16 -94 -21 290 68 408 59 callsubr
          -9 63 -8 64 201 68 hintmask 11101010
          54 115 rmoveto
          15 4 20 8 13 vhcurveto
          5 callgsubr
          -103 -63 -94 -94 -15 hvcurveto
          -89 99 -67 88 -14 vhcurveto
          110 83 91 144 127 vvcurveto
          hintmask 11100110
          115 -269 53 103 vvcurveto
          39 40 29 30 16 vhcurveto
          30 48 -8 -11 28 hvcurveto
          20 -8 -36 callsubr
          hintmask 11010110
          -31 -57 5 10 -30 hvcurveto
          -69 -33 -96 -92 -77 -123 265 -60 -109 vvcurveto
          -57 -54 -111 -53 -47 vhcurveto
          hintmask 11101010
          -91 24 -59 40 94 vvcurveto
          endchar
        </CharString>
        <CharString name="T">
          -3 6 -21 620 42 -42 61 48 -20 hstemhm
          190 62 hintmask 11011000
          145 666 rmoveto
          -76 -28 -93 -87 -81 -107 callsubr
          11 2 25 5 10 vhcurveto
          26 26 59 6 48 hhcurveto
          16 20 -1 -1 11 hvcurveto
          -1 -7 -13 -2 -20 -7 -11 -6 rlinecurve
          3 -44 1 -46 -34 vvcurveto
          -137 -12 -227 -23 -103 vhcurveto
          6 -5 -59 callgsubr
          rlinecurve
          -54 callgsubr
          115 8 178 17 115 vhcurveto
          47 -4 56 -8 40 -10 23 -7 rcurveline
          8 57 14 35 35 45 -11 6 rcurveline
          -26 -21 -19 -19 -23 -23 rrcurveto
          -3 -9 -19 -1 -9 hhcurveto
          hintmask 10111000
          -74 -91 14 5 -74 hvcurveto
          endchar
        </CharString>
        <CharString name="Thorn">
          11 6 -21 186 30 283 37 130 -20 52 callsubr
          111 62 184 84 hintmask 11101110
          202 664 rmoveto
          hintmask 11110110
          -13 -74 -45 0 -75 hhcurveto
          -1 -12 22 -8 41 -8 33 -3 rlinecurve
          7 -47 1 -66 -50 vvcurveto
          -167 -16 -220 -19 -80 vhcurveto
          6 -5 -59 callgsubr
          rlinecurve
          -54 callgsubr
          77 3 107 8 97 vhcurveto
          7 22 25 4 24 hhcurveto
          78 24 -63 32 callgsubr
          35 -103 -27 -28 -1 -2 -29 hvcurveto
          5 56 7 50 8 35 rrcurveto
          endchar
        </CharString>
        <CharString name="U">
          147 1 callgsubr
          hstemhm
          -78 68 106 76 241 62 hintmask 10011110
          96 -82 callsubr
          hintmask 11001110
          -76 callgsubr
          hintmask 10101110
          -47 callsubr
          -101 callgsubr
          hintmask 11001110
          -88 callsubr
          -51 callsubr
          -64 -11 -124 -64 vvcurveto
          endchar
        </CharString>
        <CharString name="Uacute">
          -82 callgsubr
          399 603 -78 callsubr
        </CharString>
        <CharString name="Ucircumflex">
          150 1 callgsubr
          95 -21 167 -97 callsubr
          208 592 -71 callgsubr
        </CharString>
        <CharString name="Udieresis">
          150 1 callgsubr
          112 38 callgsubr
          -78 68 106 76 241 62 hintmask 1001001110000000
          96 -82 callsubr
          hintmask 1100001110000000
          -76 callgsubr
          hintmask 1010001110000000
          -47 callsubr
          -101 callgsubr
          hintmask 1100001110000000
          -88 callsubr
          -51 callsubr
          -64 -11 -124 -64 vvcurveto
          hintmask 0000110000000000
          354 598 -102 callgsubr
        </CharString>
        <CharString name="Ugrave">
          -82 callgsubr
          230 528 -62 callsubr
        </CharString>
        <CharString name="V">
          62 -7 callsubr
          39 -20 hstem
          -78 68 117 62 216 83 vstem
          270 63 rmoveto
          32 callsubr
          8 174 28 -60 callsubr
          rlineto
          112 168 93 198 201 vvcurveto
          44 -9 65 -32 27 vhcurveto
          -21 -22 -26 -18 -26 -15 rrcurveto
          -7 vlineto
          24 -22 7 -60 -32 vvcurveto
          -161 -41 -147 -74 -143 vhcurveto
          endchar
        </CharString>
        <CharString name="W">
          293 -7 callsubr
          -22 22 44 -20 hstemhm
          -78 68 117 62 202 86 159 83 hintmask 11011111
          699 559 rmoveto
          24 -3 31 -7 23 vhcurveto
          20 13 27 17 15 18 -7 10 rcurveline
          -34 -63 -94 -10 -72 hhcurveto
          -102 -46 2 3 -46 hvcurveto
          -1 -12 rlineto
          46 -16 5 -66 -48 vvcurveto
          -164 -39 -150 -62 -137 vhcurveto
          32 callsubr
          9 174 27 -60 callsubr
          24 36 23 39 22 41 rlinecurve
          43 -56 47 -34 67 -28 5 2 rcurveline
          115 166 90 205 201 vvcurveto
          -242 -5 rmoveto
          19 -2 28 -3 19 vhcurveto
          hintmask 10111111
          5 23 35 4 25 hhcurveto
          60 21 -38 -77 -154 -43 -160 -72 -137 hvcurveto
          -50 18 -58 48 -25 47 rrcurveto
          45 111 44 148 119 vvcurveto
          endchar
        </CharString>
        <CharString name="X">
          64 -8 callgsubr
          44 -3 59 callsubr
          -70 68 hintmask 10011000
          91 588 rmoveto
          31 -53 35 -69 24 -46 16 -32 16 -31 14 -30 -76 -95 -96 -129 -26 -118 29 7 46 4 29 1 4 5 rcurveline
          -4 11 -1 12 11 vvcurveto
          59 34 76 32 50 vhcurveto
          46 71 56 -120 41 -102 25 -81 rlinecurve
          7 -3 35 8 43 5 35 1 rlinecurve
          -43 70 -52 99 -32 62 -21 40 -20 40 -19 40 75 94 86 104 26 117 rrcurveto
          hintmask 11001000
          -29 -7 -46 -4 -29 -1 -4 -5 rcurveline
          4 -11 1 -12 -11 vvcurveto
          -59 -39 -68 -31 -51 vhcurveto
          -31 -49 -40 81 -53 133 -10 47 rlinecurve
          -8 callsubr
          hintmask 10101000
          -2 -7 -9 -1 -11 hhcurveto
          -27 -29 3 5 -25 hvcurveto
          -71 -29 -64 -105 callgsubr
          hintmask 11001000
          31 21 43 13 -92 callgsubr
          endchar
        </CharString>
        <CharString name="Y">
          45 6 -21 788 -20 hstem
          217 66 vstem
          -68 callsubr
          endchar
        </CharString>
        <CharString name="Yacute">
          45 6 -21 769 -21 40 -20 114 -20 hstemhm
          217 66 hintmask 10101000
          -68 callsubr
          hintmask 01010000
          300 142 -78 callsubr
        </CharString>
        <CharString name="Z">
          -11 -178 52 732 43 34 -20 hstem
          19 83 vstem
          -55 -7 rmoveto
          16 -15 rlineto
          22 30 22 16 46 hhcurveto
          85 80 -76 -118 88 13 callsubr
          -87 -76 175 34 -158 vhcurveto
          204 372 68 131 39 61 18 23 rlinecurve
          -12 9 rlineto
          -25 -20 -30 -5 -31 hhcurveto
          -44 -36 16 18 -41 hvcurveto
          -64 -21 -143 -89 -69 vvcurveto
          -11 5 -12 13 -5 vhcurveto
          20 13 21 10 24 6 3 7 rcurveline
          -2 7 -1 8 8 vvcurveto
          22 8 29 15 14 vhcurveto
          4 11 17 2 11 hhcurveto
          54 31 -15 -19 50 hvcurveto
          8 2 8 2 7 4 3 -3 rcurveline
          -219 -357 -88 -150 -36 -40 -37 -37 rlinecurve
          endchar
        </CharString>
        <CharString name="a">
          -35 callgsubr
          hstemhm
          118 182 0 67 hintmask 10110010
          -81 callsubr
          hintmask 10101100
          -65 callgsubr
          hintmask 01110100
          -84 callsubr
          hintmask 10110100
          -90 callsubr
          endchar
        </CharString>
        <CharString name="aacute">
          -78 callgsubr
          264 443 -74 callsubr
        </CharString>
        <CharString name="acircumflex">
          -35 callgsubr
          72 -21 167 -76 callsubr
          139 418 -72 callsubr
        </CharString>
        <CharString name="acute">
          -244 585 -21 hstem
          200 663 -74 callsubr
        </CharString>
        <CharString name="acute.cap">
          -237 754 68 callsubr
          hstem
          207 808 -78 callsubr
        </CharString>
        <CharString name="adieresis">
          -35 callgsubr
          86 -21 123 -76 callsubr
          276 421 -102 callgsubr
        </CharString>
        <CharString name="ae">
          150 -15 53 -21 -21 259 39 192 35 10 -20 hstemhm
          118 161 0 68 hintmask 10110010
          279 125 rmoveto
          -91 -3 46 -49 91 -64 callgsubr
          rrcurveto
          hintmask 10101100
          -5 9 rlineto
          hintmask 10110100
          -8 -35 -118 -2 -38 hhcurveto
          -82 -84 0 7 -79 hvcurveto
          hintmask 10101100
          -58 callsubr
          hintmask 01110010
          -63 callsubr
          13 48 10 31 rlineto
          4 16 32 1 18 hhcurveto
          20 24 -2 -3 14 hvcurveto
          -2 -43 -2 -44 -1 -39 rrcurveto
          7 172 rmoveto
          -4 -15 -24 -1 -17 hhcurveto
          -16 -26 0 4 -13 hvcurveto
          34 106 8 25 12 35 15 21 rlinecurve
          2 7 7 1 7 hhcurveto
          5 5 -1 -2 6 hvcurveto
          5 -36 1 -45 -37 vvcurveto
          -22 0 -23 -1 -23 vhcurveto
          endchar
        </CharString>
        <CharString name="agrave">
          -78 callgsubr
          204 344 -62 callgsubr
        </CharString>
        <CharString name="ampersand">
          156 -15 61 272 58 222 68 hstem
          24 83 2 85 30 68 141 83 3 68 vstem
          258 -15 -20 callgsubr
          40 -13 29 -18 22 vhcurveto
          61 29 41 56 67 -87 callgsubr
          -6 -9 -16 -2 -11 hhcurveto
          -17 -16 2 5 -16 hvcurveto
          -102 -14 -96 -66 -89 callgsubr
          106 62 63 104 23 hvcurveto
          4 25 rlineto
          -51 13 -32 30 52 -81 callgsubr
          -48 44 -34 47 -11 vhcurveto
          -4 vlineto
          -105 -36 -71 -69 -110 -3 callsubr
          endchar
        </CharString>
        <CharString name="aring">
          -35 callgsubr
          38 35 111 35 hstemhm
          118 182 -110 50 60 67 -28 50 hintmask 1011000001000000
          -92 callsubr
          hintmask 0000011010100000
          138 472 -77 callgsubr
          endchar
        </CharString>
        <CharString name="asciicircum">
          74 312 -21 405 -20 hstem
          259 580 rmoveto
          180 -289 29 15 -48 82 -53 100 -83 208 rlinecurve
          -53 -10 -83 -208 -50 -90 -48 -82 rlinecurve
          29 -15 rlineto
          endchar
        </CharString>
        <CharString name="asciitilde">
          126 193 65 65 -20 hstem
          64 199 rmoveto
          33 26 35 22 41 62 75 -61 62 hhcurveto
          56 16 70 46 31 49 -16 13 rcurveline
          -34 -35 -35 -25 -49 hhcurveto
          -62 -57 29 36 -53 hvcurveto
          -60 -7 -74 -54 -33 -50 rrcurveto
          endchar
        </CharString>
        <CharString name="asterisk">
          -73 404 -21 139 50 79 -20 80 -20 hstem
          238 676 rmoveto
          -2 2 rlineto
          -6 -13 -5 -1 -7 hvcurveto
          -3 11 -6 25 -5 3 -7 -4 -9 -24 -5 -11 rrcurveto
          1 -4 -14 5 -6 hhcurveto
          -2 -2 15 -29 10 -45 2 -38 rlinecurve
          -28 23 -27 34 -14 30 rrcurveto
          -3 hlineto
          -3 -6 -3 -14 -3 -6 -11 2 -24 6 -7 -4 rrcurveto
          -8 17 -18 6 -9 vhcurveto
          -4 -5 -12 -9 -3 -6 rrcurveto
          -2 vlineto
          34 1 42 -11 34 -15 -36 -16 -44 -10 -33 1 -1 -2 rcurveline
          2 -6 11 -9 3 -5 -7 -9 -18 -19 -1 -7 7 -4 24 6 10 2 2 -6 2 -14 2 -6 rrcurveto
          3 hlineto
          18 29 32 35 31 23 -7 -39 -17 -44 -18 -29 2 -2 rcurveline
          6 13 5 1 6 hvcurveto
          3 -11 6 -25 5 -3 8 4 8 24 5 11 rrcurveto
          -1 5 14 -5 6 hhcurveto
          1 2 -15 29 -10 44 -1 39 rlinecurve
          27 -23 28 -35 13 -29 rrcurveto
          3 hlineto
          3 6 4 14 2 6 11 -2 25 -6 6 4 rrcurveto
          8 -16 18 -7 9 vhcurveto
          5 5 11 9 4 6 -1 2 rcurveline
          -33 -1 -43 10 -34 16 36 15 45 11 32 -1 1 2 rcurveline
          -2 6 -10 9 -4 5 rrcurveto
          8 9 18 19 7 vvcurveto
          -6 4 -25 -6 -10 -2 -1 6 -2 14 -3 6 rrcurveto
          -3 hlineto
          -17 -30 -32 -34 -31 -23 6 38 17 45 19 29 rrcurveto
          endchar
        </CharString>
        <CharString name="at">
          388 -190 50 158 -21 170 36 413 50 hstem
          38 68 381 69 172 66 vstem
          537 -15 rmoveto
          167 60 90 170 181 vvcurveto
          191 -138 79 -191 vhcurveto
          -283 -46 -144 -238 -286 vvcurveto
          -185 109 -101 185 vhcurveto
          45 10 55 23 38 26 -6 13 rcurveline
          -14 -37 -45 -8 -38 hhcurveto
          -154 -84 103 154 153 65 197 114 103 hvcurveto
          31 49 71 15 58 hhcurveto
          172 93 -81 -172 -115 -46 -156 -109 -61 hvcurveto
          -15 50 -2 75 57 vvcurveto
          109 12 118 12 50 12 callsubr
          -5 -24 -61 -1 -22 hhcurveto
          -38 -62 1 6 -37 hvcurveto
          -6 -18 20 -8 20 -7 18 -5 rlinecurve
          -164 -464 5 -6 rlineto
          8 26 49 2 26 hhcurveto
          -2 15 -2 17 15 vvcurveto
          33 4 33 14 52 vhcurveto
          19 4 35 2 27 -1 rrcurveto
          25 26 -3 -2 16 hvcurveto
          -131 10 -31 40 -15 vhcurveto
          -131 392 rmoveto
          8 23 11 31 14 20 rrcurveto
          2 8 11 1 10 hhcurveto
          6 10 -1 -2 6 hvcurveto
          3 -28 1 -38 -28 vvcurveto
          -39 -2 -62 -3 -46 vhcurveto
          -5 -17 -25 -2 -27 hhcurveto
          -24 -28 1 5 -17 hvcurveto
          endchar
        </CharString>
        <CharString name="atilde">
          -35 callgsubr
          82 65 -32 32 33 44 callsubr
          hintmask 1011000001000000
          -81 callsubr
          hintmask 1010100010000000
          -65 callgsubr
          hintmask 0111000010000000
          -84 callsubr
          hintmask 1011000010000000
          -90 callsubr
          hintmask 0000001100000000
          8 379 rmoveto
          16 15 19 8 22 hhcurveto
          hintmask 0000010100000000
          -91 callsubr
        </CharString>
        <CharString name="b">
          11 30 callgsubr
          137 79 -53 53 -53 80 hintmask 11010010
          33 -1 callsubr
          -80 -5 -118 -9 -90 vhcurveto
          16 callsubr
          12 hhcurveto
          24 37 -8 -7 23 hvcurveto
          20 -6 rlineto
          94 25 103 81 97 vvcurveto
          76 -66 30 -76 vhcurveto
          3 vlineto
          hintmask 11011000
          68 26 47 40 72 vvcurveto
          67 -65 28 -67 vhcurveto
          hintmask 10111000
          -55 -74 -9 -88 hhcurveto
          hintmask 11011000
          204 -25 rmoveto
          51 15 -34 -51 -30 -6 -30 -20 -23 hvcurveto
          -19 -14 -33 -5 -23 -1 -3 -31 rcurveline
          hintmask 11010100
          86 44 -34 -87 -25 -7 -37 -12 -24 hvcurveto
          -18 -20 -29 -9 -27 hhcurveto
          -23 -23 6 8 -19 hvcurveto
          -2 34 -1 36 25 vvcurveto
          97 6 147 15 91 vhcurveto
          5 12 22 4 16 hhcurveto
          endchar
        </CharString>
        <CharString name="backslash">
          -178 -24 -21 762 -20 hstem
          216 -45 rmoveto
          15 6 17 10 11 12 -19 57 -23 77 -16 58 -87 318 rcurveline
          -21 80 -16 62 -16 82 rrcurveto
          -4 hlineto
          -16 -9 -16 -6 -18 -6 16 -49 20 -69 27 -100 141 -523 rcurveline
          endchar
        </CharString>
        <CharString name="bar">
          -206 -195 -21 966 -20 hstem
          96 48 vstem
          144 -199 rmoveto
          769 1 108 8 callsubr
          4 -79 -751 vvcurveto
          7 -3 13 4 19 8 9 5 rlinecurve
          endchar
        </CharString>
        <CharString name="braceleft">
          -144 45 callsubr
          hstemhm
          73 53 -8 58 -58 72 -72 84 hintmask 11001000
          263 711 rmoveto
          -60 -17 -80 -63 -5 -62 -6 -95 22 -70 -7 -95 -2 -31 -42 -16 -32 -7 3 -19 rcurveline
          30 -5 37 -15 -2 -29 rrcurveto
          hintmask 11100000
          -7 -95 -32 -70 -7 -95 -4 -62 72 -63 57 -17 5 14 rcurveline
          -33 18 -35 38 -9 37 rrcurveto
          hintmask 11001000
          6 92 52 101 6 82 -11 31 -46 31 -28 17 rrcurveto
          4 vlineto
          hintmask 11000100
          30 17 51 31 16 31 rrcurveto
          hintmask 11010000
          5 82 -38 101 7 92 14 37 40 38 36 18 rrcurveto
          endchar
        </CharString>
        <CharString name="braceright">
          -143 45 callsubr
          hstemhm
          99 83 -71 71 -57 57 -7 52 hintmask 11000100
          97 697 rmoveto
          34 -18 34 -38 10 -37 rrcurveto
          hintmask 11010000
          -7 -92 -52 -101 -5 -82 10 -31 47 -31 28 -17 rrcurveto
          -4 vlineto
          hintmask 11100000
          -30 -17 -52 -31 -15 -31 rrcurveto
          hintmask 11001000
          -6 -82 38 -101 -6 -92 -15 -37 -39 -38 -37 -18 3 -14 rcurveline
          61 17 80 63 4 62 7 95 -22 70 7 95 2 29 39 15 30 5 5 19 rcurveline
          -30 7 -40 16 2 31 rrcurveto
          hintmask 11000100
          7 95 32 70 6 95 5 62 -72 63 -58 17 rrcurveto
          endchar
        </CharString>
        <CharString name="bracketleft">
          -125 -187 -21 912 -20 hstem
          110 60 vstem
          272 -172 rmoveto
          -33 1 -65 7 -32 9 56 806 rcurveline
          34 9 65 7 34 1 2 21 rcurveline
          -61 -1 -74 1 -59 15 -8 -5 rcurveline
          4 -48 -11 -196 -14 -206 -14 -206 -17 -198 -11 -48 7 -5 rcurveline
          61 15 74 1 61 -1 rrcurveto
          endchar
        </CharString>
        <CharString name="bracketright">
          -126 -187 -21 912 -20 hstemhm
          149 38 -38 60 hintmask 11100000
          -14 -193 rmoveto
          61 1 74 -1 59 -15 7 5 rcurveline
          hintmask 11010000
          -3 48 11 198 14 206 14 206 17 196 10 48 -6 5 rcurveline
          -61 -15 -74 -1 -61 1 -2 -21 rcurveline
          34 -1 65 -7 32 -9 -56 -806 rcurveline
          -34 -9 -65 -7 -35 -1 rrcurveto
          endchar
        </CharString>
        <CharString name="brokenbar">
          -199 -194 -21 967 -20 hstem
          101 48 vstem
          149 340 rmoveto
          -6 callgsubr
          -538 vmoveto
          -6 callgsubr
          endchar
        </CharString>
        <CharString name="bullet">
          -107 162 -21 266 -20 hstem
          291 288 rmoveto
          -43 34 -31 29 -24 56 rrcurveto
          -18 hlineto
          -36 -56 -37 -29 -54 -35 -2 -14 rcurveline
          44 -39 31 -36 22 -57 rrcurveto
          18 hlineto
          36 57 39 36 53 40 rrcurveto
          endchar
        </CharString>
        <CharString name="c">
          -41 -15 56 480 -20 32 -20 hstemhm
          40 78 hintmask 11010000
          -40 callsubr
          hintmask 10110000
          28 callgsubr
          endchar
        </CharString>
        <CharString name="caron">
          -198 580 27 callgsubr
          hstem
          126 647 7 callsubr
        </CharString>
        <CharString name="caron.cap">
          -170 739 27 callgsubr
          hstem
          140 806 8 callgsubr
        </CharString>
        <CharString name="ccedilla">
          -41 -194 -21 37 -20 183 56 -25 -20 525 -20 32 -20 hstemhm
          40 78 hintmask 00101010
          -40 callsubr
          hintmask 00100110
          28 callgsubr
          hintmask 01010000
          -57 -82 -34 callsubr
        </CharString>
        <CharString name="cedilla">
          -258 -194 -21 37 -20 214 67 callgsubr
          51 -97 -22 callsubr
          hintmask 10100000
          -37 callgsubr
        </CharString>
        <CharString name="cent">
          -82 -71 -21 686 -20 hstemhm
          47 71 63 27 -27 126 -108 26 hintmask 11110000
          47 172 rmoveto
          -80 39 -76 79 -16 vhcurveto
          -10 -77 7 -6 11 -6 9 -3 rlinecurve
          5 1 5 110 62 50 47 78 24 73 rlinecurve
          -23 9 -21 -57 -35 -53 -50 -38 rlinecurve
          24 346 12 -3 11 -5 9 -3 rlinecurve
          27 -11 2 -24 6 -31 6 -22 rlinecurve
          hintmask 11101000
          14 hlineto
          46 5 67 36 30 vhcurveto
          -6 15 rlineto
          -4 -13 -16 0 -14 hhcurveto
          hintmask 11100100
          -18 -33 6 6 -23 hvcurveto
          4 59 2 18 3 20 -4 3 rcurveline
          -9 -3 -10 -2 -9 -1 -5 -95 rcurveline
          -102 -70 -48 -128 -123 vvcurveto
          71 46 rmoveto
          70 18 89 33 63 vhcurveto
          24 -5 -23 -348 rlineto
          -39 27 -13 54 50 vvcurveto
          endchar
        </CharString>
        <CharString name="circumflex">
          -198 580 27 callgsubr
          hstem
          120 638 -72 callsubr
        </CharString>
        <CharString name="circumflex.cap">
          -170 739 27 callgsubr
          hstem
          134 797 -71 callgsubr
        </CharString>
        <CharString name="colon">
          -225 6 -21 500 -20 -1 callgsubr
          19 377 -86 callsubr
        </CharString>
        <CharString name="comma">
          -239 -118 -21 247 -20 hstem
          159 53 -58 callgsubr
          endchar
        </CharString>
        <CharString name="commaaccent">
          -328 46 callsubr
          hstem
          121 -84 -60 callgsubr
        </CharString>
        <CharString name="copyright">
          321 -15 42 92 49 359 -20 117 42 hstem
          36 44 150 71 372 44 vstem
          367 119 rmoveto
          67 29 43 60 15 73 -16 -6 -28 -3 -17 -1 -3 -3 rcurveline
          1 -6 1 -4 -5 vvcurveto
          -32 -12 -33 -25 -20 vhcurveto
          -73 -19 54 74 63 18 71 35 54 hvcurveto
          23 1 25 -5 24 -11 12 -6 rcurveline
          2 -19 2 -12 6 -18 rrcurveto
          17 hlineto
          38 6 45 27 26 vhcurveto
          -4 7 rlineto
          -3 -11 -15 0 -11 hhcurveto
          -22 -36 2 7 -21 hvcurveto
          -92 -59 -56 -97 -109 vvcurveto
          -81 54 -71 83 vhcurveto
          -331 193 rmoveto
          -182 144 -145 184 197 156 170 181 183 -145 147 -184 -201 -151 -174 -180 vhcurveto
          350 312 rmoveto
          160 127 -129 -159 -169 -141 -140 -167 -160 -125 128 159 173 147 137 159 hvcurveto
          endchar
        </CharString>
        <CharString name="currency">
          123 84 -21 53 54 299 54 45 -20 hstem
          74 77 267 76 vstem
          74 279 rmoveto
          -39 10 -31 18 -24 vhcurveto
          -31 -27 -32 -27 -26 -21 2 -15 10 -21 9 -11 rrcurveto
          5 hlineto
          97 88 rlineto
          -24 35 47 -11 53 hhcurveto
          44 9 41 18 34 25 95 -105 rcurveline
          15 5 22 8 17 3 2 4 rcurveline
          -30 28 -35 37 -50 51 rrcurveto
          42 42 26 54 62 vvcurveto
          40 -9 32 -17 26 vhcurveto
          106 93 -2 4 -17 3 -20 8 -15 5 rlinecurve
          -82 -80 rlineto
          23 -31 -44 12 -52 hhcurveto
          -51 -9 -48 -21 -40 -30 -98 105 rcurveline
          -5 hlineto
          -11 -11 -12 -21 -4 -15 28 -26 35 -33 31 -31 rrcurveto
          -38 -42 -24 -52 -58 vvcurveto
          205 190 rmoveto
          96 43 -56 -96 -38 -13 -52 -24 -31 hvcurveto
          -18 -24 -38 -8 -30 hhcurveto
          -94 -44 58 94 38 13 52 23 31 hvcurveto
          18 24 38 8 30 hhcurveto
          endchar
        </CharString>
        <CharString name="d">
          32 30 callgsubr
          192 76 hintmask 11011000
          33 -1 callsubr
          -80 -5 -118 -9 -90 vhcurveto
          -13 callsubr
          hintmask 10111000
          21 callgsubr
          97 6 147 15 91 vhcurveto
          hintmask 11011000
          5 13 22 4 18 hhcurveto
          102 16 -128 -102 -61 -12 -82 -31 -53 hvcurveto
          -18 -20 -36 -9 -25 hhcurveto
          endchar
        </CharString>
        <CharString name="degree">
          -80 396 39 193 39 hstem
          42 59 162 59 vstem
          42 509 rmoveto
          -73 51 -40 80 vhcurveto
          84 14 65 68 84 vvcurveto
          73 -42 32 -80 vhcurveto
          -84 -14 -74 -60 -84 vvcurveto
          137 119 rmoveto
          62 22 -41 -62 -22 -7 -33 -12 -18 hvcurveto
          -12 -14 -27 -5 -18 hhcurveto
          -61 -23 42 61 22 7 33 12 18 hvcurveto
          12 14 27 5 18 hhcurveto
          endchar
        </CharString>
        <CharString name="dieresis">
          -171 594 47 callgsubr
          273 641 -102 callgsubr
        </CharString>
        <CharString name="dieresis.cap">
          -171 756 47 callgsubr
          273 803 -102 callgsubr
        </CharString>
        <CharString name="divide">
          106 66 91 65 49 68 91 hstem
          229 89 vstem
          318 385 rmoveto
          36 callsubr
          -273 vmoveto
          36 callsubr
          178 156 -23 callgsubr
          endchar
        </CharString>
        <CharString name="dollar">
          -89 -71 -21 686 -20 hstem
          59 56 50 25 0 26 41 62 vstem
          88 156 rmoveto
          15 2 10 6 18 vhcurveto
          -14 7 -18 -31 -28 -30 -26 -24 rlinecurve
          20 -29 27 -41 47 -43 45 -18 rlinecurve
          -5 vlineto
          -6 -62 7 -7 9 -5 10 -3 rlinecurve
          5 1 4 87 rlineto
          59 53 82 101 75 vvcurveto
          40 -55 27 -53 27 vhcurveto
          10 131 33 -12 31 -14 26 38 16 12 32 31 rlinecurve
          -10 14 rlineto
          -13 -16 -12 -3 -20 hhcurveto
          -18 -32 6 7 -23 hvcurveto
          4 42 2 15 4 18 -4 3 rcurveline
          -8 -3 -10 -2 -9 -1 -6 -69 rcurveline
          -64 -28 -78 -64 -72 vvcurveto
          -43 60 -28 54 -29 vhcurveto
          -16 -202 rlineto
          -34 24 -35 44 35 vvcurveto
          169 17 rmoveto
          -30 -50 -84 -24 -19 vhcurveto
          1 10 13 192 rlineto
          33 -20 27 -21 -28 vvcurveto
          -142 233 rmoveto
          21 33 31 20 6 vhcurveto
          8 -1 9 -3 10 -2 rrcurveto
          -1 vlineto
          -9 -125 rlineto
          -39 21 -32 22 31 vvcurveto
          endchar
        </CharString>
        <CharString name="dotaccentcmb">
          -336 594 47 callgsubr
          108 641 -86 callsubr
        </CharString>
        <CharString name="dotaccentcmb.cap">
          -336 757 47 callgsubr
          108 804 -86 callsubr
        </CharString>
        <CharString name="dotlessi">
          -41 callsubr
        </CharString>
        <CharString name="dotlessj">
          -205 -45 callsubr
        </CharString>
        <CharString name="e">
          0 callsubr
          hstemhm
          30 80 -47 47 -47 81 hintmask 10101000
          -55 callgsubr
          hintmask 10110000
          -83 callsubr
          hintmask 01100100
          -74 callgsubr
          endchar
        </CharString>
        <CharString name="eacute">
          -73 callgsubr
          7 148 -74 callsubr
        </CharString>
        <CharString name="ecircumflex">
          0 callsubr
          64 -21 167 -70 callsubr
          -118 123 -72 callsubr
        </CharString>
        <CharString name="edieresis">
          0 callsubr
          78 -21 123 -70 callsubr
          19 126 -102 callgsubr
        </CharString>
        <CharString name="egrave">
          -73 callgsubr
          -53 49 -62 callgsubr
        </CharString>
        <CharString name="eight">
          -44 -15 59 432 60 hstemhm
          48 71 -47 75 125 64 hintmask 11101000
          48 116 rmoveto
          -78 55 -53 78 vhcurveto
          87 32 50 46 29 88 rrcurveto
          84 -61 39 -52 34 vhcurveto
          43 33 59 51 54 vvcurveto
          64 -40 26 -64 vhcurveto
          hintmask 11011000
          -54 -14 -76 -57 -30 -47 rrcurveto
          -69 44 -40 43 -33 vhcurveto
          hintmask 11101000
          -55 -36 -56 -59 -65 vvcurveto
          224 18 rmoveto
          -22 -6 -30 -10 -21 vhcurveto
          -12 -13 -25 -5 -16 hhcurveto
          -54 -29 43 53 44 26 48 36 27 hvcurveto
          47 -35 44 -31 -59 vvcurveto
          hintmask 11011000
          -125 292 rmoveto
          10 2 16 4 9 vhcurveto
          11 15 26 4 17 hhcurveto
          37 19 -18 -39 -38 -26 -32 -29 -27 hvcurveto
          -37 26 -28 28 50 vvcurveto
          endchar
        </CharString>
        <CharString name="ellipsis">
          132 6 -21 123 -20 -1 callgsubr
          188 hmoveto
          -106 callgsubr
          188 hmoveto
          -106 callgsubr
          endchar
        </CharString>
        <CharString name="emdash">
          191 245 56 callgsubr
          634 284 43 callgsubr
          -226 49 callsubr
          596 hlineto
          endchar
        </CharString>
        <CharString name="endash">
          -9 245 56 callgsubr
          434 284 58 callsubr
          -44 -1 -26 hhcurveto
          hintmask 01000000
          -143 -76 3 6 -83 hvcurveto
          -29 -44 rlineto
          hintmask 10000000
          54 callgsubr
          396 hlineto
          endchar
        </CharString>
        <CharString name="equal">
          106 145 49 105 49 9 -20 hstemhm
          hintmask 11000000
          496 191 -23 callgsubr
          9 200 rmoveto
          -16 callgsubr
          hintmask 10100000
          -11 callgsubr
          rlineto
          hintmask 11000000
          54 callgsubr
          426 hlineto
          endchar
        </CharString>
        <CharString name="eth">
          -37 6 -21 277 27 207 34 -9 -20 hstemhm
          118 63 189 76 hintmask 11101100
          43 -1 callsubr
          -23 0 -25 -1 -26 vhcurveto
          -74 -3 -1 -11 -3 -11 -3 -10 rlinecurve
          3 -4 17 3 29 2 31 2 rlinecurve
          -3 -61 -4 -66 -5 -55 -13 callsubr
          hintmask 11011100
          21 callgsubr
          32 0 38 2 39 vhcurveto
          99 39 callsubr
          rrcurveto
          -1 hlineto
          3 69 6 71 9 53 rrcurveto
          hintmask 11101100
          5 13 22 4 18 hhcurveto
          102 16 -128 -102 -61 -12 -82 -31 -53 hvcurveto
          -18 -20 -36 -9 -25 hhcurveto
          endchar
        </CharString>
        <CharString name="exclam">
          -239 6 -21 -1 callgsubr
          -60 127 rmoveto
          26 2 35 232 24 122 40 120 rlinecurve
          -7 13 -11 18 -9 9 -18 1 -34 -10 -17 -8 rrcurveto
          endchar
        </CharString>
        <CharString name="exclamdown">
          -237 485 -20 hstem
          111 303 rmoveto
          -26 -2 -35 -232 -24 -109 -40 -120 rlinecurve
          7 -13 11 -18 9 -9 18 -1 34 10 17 8 rrcurveto
          79 613 -86 callsubr
        </CharString>
        <CharString name="f">
          -60 6 -21 272 39 190 35 10 19 callgsubr
          hintmask 11101000
          188 482 rmoveto
          -24 callsubr
          rrcurveto
          hintmask 11011000
          -5 9 rlineto
          hintmask 11101000
          -8 -35 -77 -2 -36 hhcurveto
          -40 -121 2 6 -39 hvcurveto
          -3 -17 19 -9 25 -8 22 -5 rlinecurve
          6 -38 1 -47 -40 vvcurveto
          -134 -13 -178 -16 -64 -15 callsubr
          -6 28 callsubr
          42 vvcurveto
          31 0 33 -40 callgsubr
          59 9 52 rrcurveto
          endchar
        </CharString>
        <CharString name="five">
          -44 6 -21 297 60 116 58 23 -20 hstemhm
          89 214 -29 78 hintmask 11110100
          94 275 rmoveto
          5 21 23 2 21 hhcurveto
          73 42 -25 -73 -56 -31 -59 -47 -30 hvcurveto
          -35 13 -52 49 37 vvcurveto
          12 3 11 5 13 55 callsubr
          17 -24 27 -38 51 -42 46 -12 rlinecurve
          77 46 101 100 90 vvcurveto
          82 -60 39 -82 -27 -28 -2 -7 -27 vhcurveto
          -7 -8 -3 1 15 121 rlineto
          8 34 26 3 33 hhcurveto
          18 15 -2 -7 15 hvcurveto
          10 -20 11 -22 12 -17 15 7 rcurveline
          hintmask 11111000
          -11 28 -8 33 29 vvcurveto
          17 3 11 8 13 vhcurveto
          -7 11 rlineto
          -16 -54 -41 -7 -56 hhcurveto
          -20 -24 2 12 -17 hvcurveto
          -9 -6 8 -19 3 -22 -3 -50 rlinecurve
          -9 -153 rlineto
          endchar
        </CharString>
        <CharString name="four">
          -44 -2 -21 23 195 -49 49 346 -20 hstemhm
          229 61 hintmask 11011000
          208 27 rmoveto
          -2 callsubr
          hintmask 10111000
          -3 33 -1 36 38 vvcurveto
          26 26 -2 -3 27 hvcurveto
          3 21 5 23 8 20 -5 5 rcurveline
          -11 -26 -33 -5 -30 hhcurveto
          6 251 13 34 19 58 -8 4 rcurveline
          -21 -10 -42 -10 -23 -3 -65 -136 -66 -110 -99 -113 4 -13 rcurveline
          212 hlineto
          -2 -46 -5 -36 -5 -37 rrcurveto
          19 416 rmoveto
          7 hlineto
          -10 -248 -50 1 -40 2 -35 4 rlinecurve
          48 67 49 98 31 76 rrcurveto
          endchar
        </CharString>
        <CharString name="g">
          -17 -147 -21 689 -20 32 -20 hstemhm
          43 78 163 61 hintmask 11011000
          196 475 rmoveto
          -32 callgsubr
          hintmask 10111000
          -29 -46 3 9 -28 hvcurveto
          -116 -78 -69 -142 -138 vvcurveto
          -93 58 -86 94 -11 vhcurveto
          26 10 45 34 18 21 rrcurveto
          -8 vlineto
          -41 -7 -71 -25 -32 vhcurveto
          -4 -6 -13 -2 -8 hhcurveto
          -16 -17 2 10 -13 hvcurveto
          -5 -1 -10 -16 -19 -19 -16 -12 rlinecurve
          -16 15 -8 15 64 94 71 55 28 vhcurveto
          1 79 5 88 9 77 2 16 4 16 7 15 -8 6 rcurveline
          -20 -26 -32 -6 -33 hhcurveto
          -19 -19 2 3 -18 hvcurveto
          -2 -17 19 -11 26 -11 21 -6 rlinecurve
          2 -13 1 -17 -15 vvcurveto
          -57 vlineto
          -16 -18 -29 -20 -24 -5 rrcurveto
          -79 15 -16 79 79 vvcurveto
          85 28 102 47 71 vhcurveto
          endchar
        </CharString>
        <CharString name="germandbls">
          329 41 callsubr
          111 59 -59 250 -45 63 hintmask 1100100000000000
          -12 callsubr
          hintmask 1011010000000000
          -29 -44 2 9 -28 hvcurveto
          -63 -26 -78 -67 -68 -80 205 -43 -70 vvcurveto
          -30 -43 -83 -26 -18 vhcurveto
          -43 14 -53 40 44 vvcurveto
          16 3 9 8 16 vhcurveto
          -16 9 -22 -35 -25 -27 -30 -28 rlinecurve
          22 -29 32 -43 50 -37 52 -11 rlinecurve
          70 49 84 110 85 80 -209 40 71 vvcurveto
          20 32 25 20 7 vhcurveto
          hintmask 1100000100000000
          379 hmoveto
          27 -1 46 -9 24 -10 14 -6 -64 callsubr
          hintmask 1010001010000000
          -29 -44 2 9 -28 hvcurveto
          -63 -26 -78 -67 -68 -80 205 -43 -70 vvcurveto
          -30 -43 -83 -26 -18 vhcurveto
          -43 14 -53 40 44 vvcurveto
          16 3 9 8 16 vhcurveto
          -16 9 -22 -35 -25 -27 -30 -28 rlinecurve
          22 -29 32 -43 50 -37 52 -11 rlinecurve
          70 49 84 110 85 80 -209 40 71 vvcurveto
          20 32 25 20 7 vhcurveto
          endchar
        </CharString>
        <CharString name="grave">
          -244 585 -21 hstem
          190 564 -62 callgsubr
        </CharString>
        <CharString name="grave.cap">
          -237 754 68 callsubr
          hstem
          198 733 -62 callsubr
        </CharString>
        <CharString name="greater">
          106 76 -21 394 -20 hstem
          484 286 rmoveto
          -45 14 -50 18 -91 34 -85 32 -65 28 -72 37 -24 -46 rcurveline
          5 -10 359 -139 rlineto
          -4 vlineto
          -359 -138 -5 -10 26 -47 72 36 60 26 88 35 rlinecurve
          75 30 61 21 64 19 rrcurveto
          endchar
        </CharString>
        <CharString name="guillemotleft">
          3 -11 callsubr
          87 160 rmoveto
          113 128 -17 13 -56 -58 -58 -41 -71 -36 rlinecurve
          -2 -20 62 -41 41 -45 47 -57 rlinecurve
          22 14 rlineto
          endchar
        </CharString>
        <CharString name="guillemotright">
          5 37 callsubr
          185 4 callsubr
          -291 -141 rmoveto
          18 -14 61 57 53 45 72 41 rlinecurve
          2 20 -61 36 -48 41 -42 58 rlinecurve
          -19 -13 79 -128 rlineto
          endchar
        </CharString>
        <CharString name="guilsinglleft">
          -161 -11 callsubr
          endchar
        </CharString>
        <CharString name="guilsinglright">
          -159 37 callsubr
          21 4 callsubr
          endchar
        </CharString>
        <CharString name="h">
          99 54 callsubr
          64 205 62 hintmask 10111000
          170 257 -45 callgsubr
          hintmask 11011000
          -24 callgsubr
        </CharString>
        <CharString name="hbar">
          39 6 -21 399 30 -23 -21 57 -20 114 -20 30 -20 41 callgsubr
          64 205 62 hintmask 01000000
          423 389 rmoveto
          hintmask 00110000
          122 39 callsubr
          -422 -16 rcurveline
          -1 -11 -3 -11 -3 -10 3 -4 rcurveline
          25 4 49 4 44 1 rrcurveto
          hintmask 10000111
          30 -122 -45 callgsubr
          hintmask 10001011
          -24 callgsubr
        </CharString>
        <CharString name="hyphen">
          -158 243 45 -31 -21 62 67 callgsubr
          260 293 rmoveto
          -8 5 rlineto
          hintmask 10000000
          -7 -59 -54 -3 -59 hhcurveto
          -46 hlineto
          -6 -46 rlineto
          hintmask 01100000
          9 -6 217 15 rlineto
          endchar
        </CharString>
        <CharString name="i">
          -41 callsubr
        </CharString>
        <CharString name="iacute">
          -44 callsubr
          72 136 -74 callsubr
        </CharString>
        <CharString name="icircumflex">
          -17 callsubr
          69 -21 167 -38 callsubr
          -67 111 -72 callsubr
        </CharString>
        <CharString name="idieresis">
          -17 callsubr
          83 -21 123 -38 callsubr
          84 114 -102 callgsubr
        </CharString>
        <CharString name="igrave">
          -44 callsubr
          12 37 -62 callgsubr
        </CharString>
        <CharString name="ij">
          93 -124 -21 151 -25 callgsubr
          30 19 callgsubr
          205 60 hintmask 01011000
          11 callgsubr
          hintmask 01101000
          -95 callsubr
          hintmask 01011000
          hintmask 10010100
          166 -406 -59 callsubr
          hintmask 10100100
          -41 callgsubr
          endchar
        </CharString>
        <CharString name="itilde">
          -17 callsubr
          79 65 -32 32 33 19 callgsubr
          hintmask 10100010
          11 callgsubr
          hintmask 11000010
          -95 callsubr
          hintmask 10100010
          hintmask 00001100
          -184 72 rmoveto
          16 15 19 8 22 hhcurveto
          hintmask 00010100
          -91 callsubr
        </CharString>
        <CharString name="j">
          -165 -45 callsubr
        </CharString>
        <CharString name="jcircumflex">
          -165 45 callgsubr
          69 27 callgsubr
          hstemhm
          115 60 hintmask 10100100
          104 121 -59 callsubr
          hintmask 11000100
          -41 callgsubr
          hintmask 00011000
          32 517 -72 callsubr
        </CharString>
        <CharString name="k">
          7 54 callsubr
          63 hintmask 11010000
          -37 callsubr
          hintmask 10110000
          -4 4 rlineto
          hintmask 11010000
          -20 callsubr
          endchar
        </CharString>
        <CharString name="kcommaaccent">
          7 46 callsubr
          57 -25 callgsubr
          30 -20 41 callgsubr
          63 hintmask 00110100
          -37 callsubr
          hintmask 00101100
          -4 4 rlineto
          hintmask 00110100
          -20 callsubr
          hintmask 11000000
          135 -284 -60 callgsubr
        </CharString>
        <CharString name="kgreenlandic">
          62 6 -21 504 -20 hstem
          117 69 vstem
          345 403 rmoveto
          11 -2 19 -7 10 -6 2 -23 7 -35 8 -22 14 1 rcurveline
          -3 57 8 42 37 37 -5 15 rcurveline
          -21 -46 14 9 -21 hvcurveto
          -14 6 -80 -81 -57 -74 -30 -113 rlinecurve
          -10 1 5 23 5 24 2 27 rlinecurve
          98 5 47 12 31 vhcurveto
          -7 13 rlineto
          -11 -54 -54 -4 -55 hhcurveto
          -14 vlineto
          22 -6 32 -6 24 -2 rrcurveto
          4 -48 2 -99 -59 vvcurveto
          -155 -9 -67 -7 -24 vhcurveto
          6 -5 29 7 25 6 29 callgsubr
          -4 21 -4 32 21 vvcurveto
          82 16 46 20 40 vhcurveto
          10 -42 30 -84 18 -40 17 -38 24 -39 37 -14 74 55 46 61 callgsubr
          -45 -88 -43 -38 -11 17 rcurveline
          -36 56 -39 82 -30 100 32 44 32 36 21 2 rrcurveto
          endchar
        </CharString>
        <CharString name="l">
          -94 -3 37 -28 -21 536 51 callgsubr
          hintmask 10011000
          192 532 rmoveto
          hintmask 01101000
          -31 callgsubr
          hintmask 10011000
          -54 callsubr
        </CharString>
        <CharString name="ldot">
          66 -3 37 -28 -21 267 13 callgsubr
          187 51 callgsubr
          hintmask 00110000
          332 299 -103 callsubr
          hintmask 10000110
          -140 233 -49 callsubr
        </CharString>
        <CharString name="less">
          106 76 -21 394 -20 hstem
          52 222 rmoveto
          64 -19 61 -21 75 -30 88 -35 60 -26 72 -36 26 47 rcurveline
          -5 10 -359 138 rlineto
          4 vlineto
          359 139 5 10 -24 46 -72 -37 -65 -28 -85 -32 rlinecurve
          -91 -34 -50 -18 -45 -14 rrcurveto
          endchar
        </CharString>
        <CharString name="logicalnot">
          106 103 -21 156 49 9 -20 hstemhm
          447 47 hintmask 11010000
          494 82 rmoveto
          5 6 rlineto
          -2 53 -3 23 120 vvcurveto
          -16 callgsubr
          hintmask 10110000
          -11 callgsubr
          rlineto
          hintmask 11010000
          54 callgsubr
          388 -147 hlineto
          endchar
        </CharString>
        <CharString name="lslash">
          -162 -3 37 -28 -21 223 -21 163 -20 191 51 callgsubr
          hintmask 00110000
          128 277 31 callgsubr
          22 callgsubr
          hintmask 10000110
          63 254 -49 callsubr
        </CharString>
        <CharString name="m">
          176 6 callgsubr
          hstemhm
          135 129 -118 88 221 65 hintmask 11001100
          234 531 rmoveto
          33 callgsubr
          36 -6 -10 callgsubr
          -8 -110 -62 -285 -36 -104 50 callgsubr
          hintmask 11010100
          27 6 34 4 29 1 1 87 14 144 30 179 3 1 rcurveline
          1 vlineto
          39 -116 42 -125 -74 vvcurveto
          -10 -1 -8 -1 -9 vhcurveto
          10 -6 21 13 24 13 25 8 rlinecurve
          3 38 7 43 91 254 rrcurveto
          3 hlineto
          hintmask 10110100
          7 -55 2 -38 -79 vvcurveto
          -99 -7 -110 -11 -60 vhcurveto
          5 -4 27 6 39 4 29 callgsubr
          -9 37 -8 93 91 vvcurveto
          110 4 128 14 72 vhcurveto
          -6 4 rlineto
          hintmask 11001100
          -6 -21 -37 -5 -22 hhcurveto
          -11 -12 1 1 -10 hvcurveto
          -3 -5 rlineto
          2 -4 1 -5 -5 vvcurveto
          -9 -2 -8 -3 -11 vhcurveto
          -76 -234 rlineto
          -12 -37 -2 -15 -13 vvcurveto
          -6 -2 -25 79 rlineto
          -56 179 -3 33 25 vvcurveto
          11 1 14 4 11 vhcurveto
          endchar
        </CharString>
        <CharString name="macron">
          -187 607 50 -30 -21 56 -20 hstemhm
          hintmask 10000000
          257 656 rmoveto
          -7 4 rlineto
          -2 -31 -36 -1 -30 hhcurveto
          -29 -35 1 1 -30 hvcurveto
          hintmask 01100000
          -40 3 -19 -51 8 -5 230 2 rlineto
          endchar
        </CharString>
        <CharString name="mu">
          66 -198 -21 704 -20 hstemhm
          83 46 -46 62 164 69 hintmask 11101000
          145 151 rmoveto
          115 10 116 26 98 vhcurveto
          -6 5 -27 -7 -36 -5 -29 -3 rlinecurve
          -4 -3 4 -26 3 -44 -1 -66 rlinecurve
          -4 -188 -4 -211 -5 -76 -10 -68 rlinecurve
          9 -7 25 9 25 6 26 5 rlinecurve
          3 3 rlineto
          -13 56 -8 67 72 vvcurveto
          8 -7 9 -5 10 -2 81 49 55 116 21 92 10 -1 rcurveline
          -6 -23 -5 -28 -3 -23 rrcurveto
          -135 10 -32 40 -15 vhcurveto
          74 55 48 61 callgsubr
          -42 -84 -43 -38 rrcurveto
          -6 35 -2 62 67 vvcurveto
          155 13 67 7 24 vhcurveto
          -6 5 -29 -7 -25 -6 -29 -2 rlinecurve
          4 -21 4 -39 -21 vvcurveto
          -84 -66 -192 -69 -49 vhcurveto
          hintmask 11011000
          -29 10 -8 47 30 vvcurveto
          endchar
        </CharString>
        <CharString name="multiply">
          106 71 -21 375 -20 hstem
          427 425 rmoveto
          -8 -1 -141 -151 -61 64 -47 50 -33 37 rlinecurve
          -8 1 -38 -35 153 -151 -62 -63 -53 -44 -48 -43 rlinecurve
          28 -39 rlineto
          11 hlineto
          158 155 158 -155 rlineto
          11 hlineto
          28 39 -49 44 -52 42 -63 64 rlinecurve
          154 151 rlineto
          endchar
        </CharString>
        <CharString name="n">
          88 37 callgsubr
          41 callgsubr
          44 235 42 hintmask 11011000
          -79 callgsubr
          hintmask 10111000
          38 callsubr
          hintmask 11011000
          -27 -7 -31 -3 -28 -2 rrcurveto
          6 -30 14 -148 -215 vvcurveto
          -2 -1 -35 64 -71 128 -77 136 -18 76 rlinecurve
          endchar
        </CharString>
        <CharString name="nacute">
          88 37 callgsubr
          72 -21 41 callgsubr
          44 235 42 hintmask 11001100
          -79 callgsubr
          hintmask 10101100
          38 callsubr
          hintmask 11001100
          -27 -7 -31 -3 -28 -2 rrcurveto
          6 -30 14 -148 -215 vvcurveto
          -2 -1 -35 64 -71 128 -77 136 -18 76 rlinecurve
          hintmask 00010000
          219 132 -74 callsubr
        </CharString>
        <CharString name="nbspace">
          -279 endchar
        </CharString>
        <CharString name="nine">
          -44 6 -21 214 52 224 61 hstem
          44 75 150 78 vstem
          269 345 rmoveto
          -149 -86 -111 -124 -84 vhcurveto
          11 -16 rlineto
          152 71 125 138 167 vvcurveto
          98 -41 77 -98 vhcurveto
          -68 -20 -74 -70 -22 -67 rrcurveto
          -108 29 -72 108 vhcurveto
          16 18 17 16 20 14 rrcurveto
          6 vlineto
          -1 -10 -9 -1 -9 hhcurveto
          -71 -16 54 71 26 5 30 10 25 hvcurveto
          12 13 21 6 21 hhcurveto
          69 11 -61 -69 hvcurveto
          endchar
        </CharString>
        <CharString name="ntilde">
          88 37 callgsubr
          77 65 -32 32 33 -20 41 callgsubr
          44 235 42 hintmask 11000011
          -79 callgsubr
          hintmask 10100011
          38 callsubr
          hintmask 11000011
          -27 -7 -31 -3 -28 -2 rrcurveto
          6 -30 14 -148 -215 vvcurveto
          -2 -1 -35 64 -71 128 -77 136 -18 76 rlinecurve
          hintmask 00001100
          -37 68 rmoveto
          16 15 19 8 22 hhcurveto
          hintmask 00010100
          -91 callsubr
        </CharString>
        <CharString name="numbersign">
          128 -71 -21 234 53 130 47 220 -20 hstem
          405 371 rmoveto
          15 78 14 64 20 76 55 callgsubr
          -215 -37 1 -38 1 -34 2 rlinecurve
          14 75 14 63 20 75 55 callgsubr
          -209 -28 1 -24 1 -15 2 rlinecurve
          -45 4 -27 -53 7 -6 122 -3 -25 -129 -30 1 -25 1 -16 2 rlinecurve
          -45 4 -27 -52 8 -7 125 -3 -14 -81 -13 43 callsubr
          232 108 -3 -14 -77 -12 43 callsubr
          228 108 -3 26 49 -6 5 -24 -1 -44 1 -50 1 rlinecurve
          24 131 113 -3 27 48 -7 6 -25 -1 -46 1 -52 1 rlinecurve
          -184 -178 rmoveto
          25 130 108 -3 -25 -131 -36 1 -38 1 -34 2 rlinecurve
          endchar
        </CharString>
        <CharString name="o">
          26 callgsubr
          hstem
          19 callsubr
          vstem
          -96 callgsubr
          endchar
        </CharString>
        <CharString name="oacute">
          -53 callgsubr
          340 473 -74 callsubr
        </CharString>
        <CharString name="ocircumflex">
          26 callgsubr
          44 -21 167 -50 callsubr
          215 448 -72 callsubr
        </CharString>
        <CharString name="odieresis">
          26 callgsubr
          58 -21 123 -50 callsubr
          352 451 -102 callgsubr
        </CharString>
        <CharString name="oe">
          165 -15 53 217 39 192 35 -35 50 hstemhm
          7 78 202 60 hintmask 11101100
          216 536 rmoveto
          -28 callgsubr
          -109 61 -96 108 vhcurveto
          42 16 37 28 31 35 rrcurveto
          -52 16 42 -27 69 -64 callgsubr
          -5 9 rcurveline
          -8 -35 -118 -2 -38 hhcurveto
          hintmask 11011100
          -107 16 15 -67 hhcurveto
          26 -477 rmoveto
          -75 callsubr
          35 24 -10 -25 24 hvcurveto
          1 -26 1 -26 -23 vvcurveto
          -67 -5 -73 -2 -67 vhcurveto
          -1 -35 -16 -37 -21 -27 rrcurveto
          endchar
        </CharString>
        <CharString name="ograve">
          -53 callgsubr
          280 374 -62 callgsubr
        </CharString>
        <CharString name="one">
          -44 -2 -21 44 -21 539 -20 hstem
          186 60 vstem
          273 539 rmoveto
          -14 -6 -30 -8 -16 -3 -33 -44 -23 -22 -51 -22 5 -16 rcurveline
          21 2 32 6 21 6 rrcurveto
          1 -21 0 -27 -19 vvcurveto
          -113 -9 -144 -12 -81 vhcurveto
          -2 callsubr
          -3 37 -1 46 29 vvcurveto
          96 9 195 26 93 vhcurveto
          endchar
        </CharString>
        <CharString name="onehalf">
          356 -21 -21 58 49 285 57 297 -20 hstemhm
          147 57 291 215 -75 55 hintmask 11111100
          103 -42 -50 callgsubr
          126 713 -73 callsubr
          480 -385 -18 callsubr
          hintmask 11111010
          42 callsubr
          -21 callsubr
          hintmask 11111100
          62 callsubr
        </CharString>
        <CharString name="onequarter">
          61 callsubr
          544 -20 hstemhm
          147 57 388 58 hintmask 11011100
          103 -42 -42 callgsubr
          hintmask 10111100
          -46 callsubr
          -366 338 -73 callsubr
          endchar
        </CharString>
        <CharString name="onesuperior">
          -144 355 -21 417 -20 hstem
          125 57 vstem
          202 751 -73 callsubr
          endchar
        </CharString>
        <CharString name="ordfeminine">
          -5 280 -21 439 -20 hstem
          63 66 132 61 vstem
          63 389 rmoveto
          -51 22 -71 51 -8 vhcurveto
          67 40 44 96 17 76 8 -1 rcurveline
          -4 -19 -5 -23 -2 -19 rrcurveto
          -111 10 -27 33 -12 vhcurveto
          61 45 42 95 18 74 -12 2 rcurveline
          -14 -45 -35 -66 -36 -31 rrcurveto
          -4 29 -2 47 55 vvcurveto
          84 6 94 20 53 vhcurveto
          -11 3 -11 -16 -12 -22 -7 -17 rlinecurve
          16 -26 -34 13 -30 hhcurveto
          -101 -44 -53 -129 -110 vvcurveto
          66 26 rmoveto
          63 9 71 28 57 vhcurveto
          8 8 11 3 12 hhcurveto
          23 27 -11 -17 18 hvcurveto
          -68 -55 -150 -54 -41 vhcurveto
          -22 9 -5 53 23 vvcurveto
          endchar
        </CharString>
        <CharString name="ordmasculine">
          -52 259 52 303 52 hstem
          63 65 132 69 vstem
          260 504 rmoveto
          -58 -12 -73 -24 -52 vhcurveto
          -7 -11 -10 -3 -13 hhcurveto
          -49 -13 61 49 61 10 67 25 55 hvcurveto
          7 11 10 3 13 hhcurveto
          52 11 -58 -52 hvcurveto
          -197 -94 rmoveto
          -80 37 -71 80 vhcurveto
          95 39 54 115 102 vvcurveto
          88 -33 63 -88 vhcurveto
          -95 -41 -50 -112 -103 vvcurveto
          endchar
        </CharString>
        <CharString name="oslash">
          -37 -66 -21 72 60 430 61 85 -20 hstemhm
          19 callsubr
          hintmask 10010000
          100 -87 rmoveto
          187 493 38 99 24 65 21 48 rlinecurve
          -4 3 -12 -4 -14 -2 -12 -1 rlinecurve
          -26 -80 -22 -63 -30 -78 -95 -250 rcurveline
          -22 -57 -39 -93 -25 -56 6 -9 11 -10 9 -5 rrcurveto
          hintmask 01101100
          245 404 -98 callsubr
          endchar
        </CharString>
        <CharString name="otilde">
          26 callgsubr
          54 65 -32 32 52 callsubr
          19 callsubr
          hintmask 11000110
          -96 callgsubr
          hintmask 00011000
          84 409 rmoveto
          16 15 19 8 22 hhcurveto
          hintmask 00101000
          -91 callsubr
        </CharString>
        <CharString name="p">
          -34 6 -21 259 31 221 25 callgsubr
          161 80 hintmask 11101100
          409 411 rmoveto
          91 -65 28 -83 vhcurveto
          hintmask 11011100
          -64 -74 -9 -87 11 callsubr
          33 -6 52 callgsubr
          -38 0 -46 -40 vvcurveto
          -134 -12 -178 -16 -64 -15 callsubr
          -6 30 -3 83 42 vvcurveto
          96 8 148 14 91 vhcurveto
          hintmask 11101100
          21 callsubr
          hvcurveto
          endchar
        </CharString>
        <CharString name="paragraph">
          130 -115 68 705 -20 39 -20 hstemhm
          281 41 62 48 hintmask 11011000
          367 651 rmoveto
          1 -42 -41 6 -42 hhcurveto
          -120 -92 -41 -120 -123 100 -79 123 12 10 1 2 12 hvcurveto
          -11 -167 -4 -55 -10 -66 -25 -49 rlinecurve
          -5 -11 -24 -3 -13 hhcurveto
          -13 -16 3 7 -9 hvcurveto
          -7 -1 -10 -18 -18 -18 -18 -14 rlinecurve
          -16 13 -11 16 168 18 160 136 9 vhcurveto
          10 144 11 155 11 88 17 78 rlinecurve
          hintmask 10111000
          147 31 rmoveto
          -28 -13 -41 -11 -30 -2 -17 -86 -10 -134 -8 -106 -18 -256 -11 -42 -14 -38 4 -4 rcurveline
          -59 callgsubr
          rrcurveto
          -12 45 -3 78 49 vvcurveto
          261 40 192 53 39 vhcurveto
          endchar
        </CharString>
        <CharString name="parenleft">
          -147 45 callsubr
          hstem
          61 72 vstem
          61 262 rmoveto
          -13 -185 63 -185 118 -107 11 10 rcurveline
          -84 127 -35 176 12 164 11 164 58 148 102 127 -10 10 rcurveline
          -133 -107 -87 -160 -13 -182 rrcurveto
          endchar
        </CharString>
        <CharString name="parenright">
          -145 45 callsubr
          hstem
          166 72 vstem
          238 262 rmoveto
          13 182 -65 160 -119 107 -10 -10 rcurveline
          84 -127 36 -148 -11 -164 -12 -164 -59 -176 -102 -127 9 -10 rcurveline
          134 107 89 185 13 185 rrcurveto
          endchar
        </CharString>
        <CharString name="percent">
          356 -79 -21 106 -21 518 37 30 -20 48 -20 hstem
          166 120 228 120 vstem
          98 389 44 callgsubr
          -5 51 -22 47 -28 31 3 3 rcurveline
          -14 45 82 -22 48 hhcurveto
          27 23 5 20 20 hvcurveto
          4 -1 -33 -51 -36 -50 -35 -50 rlinecurve
          -194 -274 -37 -51 -58 -70 -39 -49 rlinecurve
          7 -12 17 -14 13 -6 rrcurveto
          5 hlineto
          338 478 64 90 63 84 33 43 rlinecurve
          -3 3 -20 -6 -25 -3 -20 -1 rlinecurve
          -7 -10 rlineto
          -32 -21 -32 -6 -36 -123 -78 30 -59 66 callgsubr
          348 -242 44 callgsubr
          87 -8 -58 76 -53 66 callgsubr
          136 150 14 callsubr
          -348 242 14 callsubr
          endchar
        </CharString>
        <CharString name="period">
          -244 6 -21 123 -20 -1 callgsubr
          endchar
        </CharString>
        <CharString name="periodcentered">
          -244 238 47 callgsubr
          154 285 -86 callsubr
        </CharString>
        <CharString name="plus">
          106 12 -21 231 52 211 64 callgsubr
          268 31 callsubr
          114 3 39 2 53 vhcurveto
          -5 6 -47 -9 rlineto
          -203 42 callgsubr
          -224 60 callsubr
          66 103 vvcurveto
          193 hlineto
          endchar
        </CharString>
        <CharString name="plusminus">
          106 0 49 218 52 166 64 callgsubr
          313 31 callsubr
          64 2 44 3 53 vhcurveto
          -5 6 -47 -9 rlineto
          -158 42 callgsubr
          -179 60 callsubr
          51 73 vvcurveto
          193 hlineto
          1 -221 -23 callgsubr
          endchar
        </CharString>
        <CharString name="q">
          13 -165 46 67 97 430 61 hstem
          19 callsubr
          vstem
          40 190 rmoveto
          -99 50 -88 89 -15 vhcurveto
          -36 -7 -40 -20 -23 -23 16 -17 rcurveline
          18 26 29 9 32 hhcurveto
          68 82 -66 -47 51 hvcurveto
          57 154 42 57 7 -4 7 -6 4 hvcurveto
          -5 -16 -29 -3 -18 hhcurveto
          -3 -6 rlineto
          -24 -11 -33 -25 -72 -100 106 9 -78 vhcurveto
          115 59 70 147 129 -61 callsubr
          300 127 -87 callsubr
          endchar
        </CharString>
        <CharString name="question">
          -191 6 -21 649 62 hstem
          222 85 vstem
          92 180 rmoveto
          26 2 16 65 12 53 14 62 rlinecurve
          57 65 50 53 40 77 rrcurveto
          93 -24 46 -93 vhcurveto
          -77 -25 -83 -54 -81 vvcurveto
          -14 8 -8 14 vhcurveto
          13 16 16 13 17 11 2 7 rcurveline
          -6 5 -1 10 7 vvcurveto
          12 5 18 7 10 vhcurveto
          8 17 19 3 18 hhcurveto
          40 23 -20 -40 -84 -69 -93 -60 -59 hvcurveto
          64 -285 -86 callsubr
        </CharString>
        <CharString name="questiondown">
          -191 -205 62 628 -20 hstem
          -54 85 vstem
          161 290 rmoveto
          -26 -2 -16 -55 -12 -52 -14 -52 rlinecurve
          -57 -65 -50 -53 -40 -77 rrcurveto
          -93 24 -46 93 vhcurveto
          77 25 83 54 81 vvcurveto
          14 -8 8 -14 vhcurveto
          -13 -16 -16 -13 -17 -11 -2 -7 rcurveline
          6 -5 1 -10 -7 vvcurveto
          -12 -5 -18 -7 -10 vhcurveto
          -8 -17 -19 -3 -18 hhcurveto
          -40 -23 20 40 84 69 93 60 59 hvcurveto
          47 277 -86 callsubr
        </CharString>
        <CharString name="quotedbl">
          -134 7 callgsubr
          117 -217 -9 callsubr
          endchar
        </CharString>
        <CharString name="quotedblbase">
          -89 -17 callgsubr
          150 hmoveto
          -65 callsubr
          -41 -32 -46 -33 -30 40 callgsubr
          37 64 74 12 69 rrcurveto
          endchar
        </CharString>
        <CharString name="quotedblleft">
          -89 -18 callgsubr
          150 hmoveto
          -34 callgsubr
          endchar
        </CharString>
        <CharString name="quotedblright">
          -89 51 callsubr
          309 611 -58 callgsubr
          -150 hmoveto
          -56 callsubr
          endchar
        </CharString>
        <CharString name="quoteleft">
          -239 -18 callgsubr
          endchar
        </CharString>
        <CharString name="quoteright">
          -239 51 callsubr
          159 611 -58 callgsubr
          endchar
        </CharString>
        <CharString name="quotesinglbase">
          -236 -17 callgsubr
          endchar
        </CharString>
        <CharString name="quotesingle">
          -264 7 callgsubr
          endchar
        </CharString>
        <CharString name="r">
          15 30 callgsubr
          162 79 hintmask 11011000
          33 callsubr
          hintmask 10111000
          -56 callgsubr
          hintmask 11011000
          -63 callgsubr
          endchar
        </CharString>
        <CharString name="rcaron">
          15 6 -21 511 34 -9 -20 79 -21 167 19 callgsubr
          162 79 hintmask 11000110
          33 callsubr
          hintmask 10100110
          -56 callgsubr
          hintmask 11000110
          -63 callgsubr
          hintmask 00011000
          -141 225 7 callsubr
        </CharString>
        <CharString name="rcommaaccent">
          15 46 callsubr
          57 34 callgsubr
          162 79 hintmask 00110110
          33 callsubr
          hintmask 00101110
          -56 callgsubr
          hintmask 00110110
          -63 callgsubr
          hintmask 11000000
          -104 -506 -60 callgsubr
        </CharString>
        <CharString name="registered">
          -10 304 34 322 36 hstem
          21 36 100 40 46 47 85 38 vstem
          21 492 rmoveto
          -105 82 -83 107 111 92 91 112 106 -83 83 -106 -113 -90 -91 -113 vhcurveto
          36 8 rmoveto
          90 76 70 90 92 60 -70 -90 -90 -74 -72 -90 -92 -62 72 90 vhcurveto
          233 63 rmoveto
          29 -21 16 -38 vhcurveto
          -25 -35 -3 -36 hhcurveto
          -1 -9 6 -3 6 -2 8 -2 rlinecurve
          3 -14 0 -14 -15 vvcurveto
          -51 -5 -67 -5 -23 vhcurveto
          2 -2 16 3 20 0 15 1 rlinecurve
          -3 12 0 31 16 vvcurveto
          36 2 51 4 33 vhcurveto
          3 5 6 1 6 hhcurveto
          17 6 -11 -21 -28 -13 -11 -23 hvcurveto
          -2 -16 rlineto
          9 hlineto
          19 -39 14 -40 5 -20 2 -1 rcurveline
          11 3 32 0 12 1 -9 13 -17 27 -7 13 -7 13 -10 15 -11 20 rrcurveto
          25 10 17 16 29 vvcurveto
          endchar
        </CharString>
        <CharString name="ring">
          -245 546 53 callgsubr
          692 -77 callgsubr
          endchar
        </CharString>
        <CharString name="ring.cap">
          -245 704 53 callgsubr
          850 -77 callgsubr
          endchar
        </CharString>
        <CharString name="s">
          -50 41 callsubr
          hintmask 11001000
          -12 callsubr
          hintmask 10110100
          -29 -44 2 9 -28 hvcurveto
          -63 -26 -78 -67 -68 -80 205 -43 -70 vvcurveto
          -30 -43 -83 -26 -18 vhcurveto
          -43 14 -53 40 44 vvcurveto
          16 3 9 8 16 vhcurveto
          -16 9 -22 -35 -25 -27 -30 -28 rlinecurve
          22 -29 32 -43 50 -37 52 -11 rlinecurve
          70 49 84 110 85 80 -209 40 71 vvcurveto
          20 32 25 20 7 vhcurveto
          endchar
        </CharString>
        <CharString name="section">
          -55 -94 -21 781 -20 hstem
          5 64 1 64 118 64 1 64 vstem
          5 263 rmoveto
          -99 247 -66 -89 vvcurveto
          -27 -28 -22 -26 -15 vhcurveto
          -27 4 -38 13 -20 8 -31 13 rcurveline
          -26 -36 -20 -16 -32 -29 10 -13 rcurveline
          12 16 12 3 20 hhcurveto
          23 46 -11 -8 22 hvcurveto
          69 33 94 72 76 vvcurveto
          26 -18 24 -25 23 vhcurveto
          55 37 53 55 57 99 -247 66 89 vvcurveto
          27 27 22 27 15 vhcurveto
          27 -4 38 -13 20 -8 31 -13 rcurveline
          26 36 20 16 32 29 -10 13 rcurveline
          -12 -16 -12 -3 -20 hhcurveto
          -23 -46 11 8 -22 hvcurveto
          -69 -33 -94 -72 -76 vvcurveto
          -27 17 -24 26 -22 vhcurveto
          -56 -38 -52 -54 -57 vvcurveto
          312 -32 rmoveto
          -33 -39 -25 -30 -14 vhcurveto
          -73 55 -106 48 58 vvcurveto
          32 39 25 30 14 vhcurveto
          73 -54 106 -49 -57 vvcurveto
          endchar
        </CharString>
        <CharString name="semicolon">
          -229 -118 -21 624 -20 hstem
          159 53 -58 callgsubr
          10 377 -86 callsubr
        </CharString>
        <CharString name="seven">
          -44 0 -21 481 57 24 -20 hstem
          189 33 rmoveto
          4 158 49 141 120 193 -8 6 rcurveline
          -12 -18 -17 -2 -25 hhcurveto
          -60 -96 11 13 -49 hvcurveto
          -8 -12 rlineto
          9 -12 4 -13 -20 vvcurveto
          -32 -10 -35 -12 -29 vhcurveto
          14 -7 15 20 16 31 8 20 rlinecurve
          6 14 17 2 17 hhcurveto
          35 39 -4 -7 35 hvcurveto
          -100 -161 -61 -106 -18 -152 -13 -14 -20 -13 -16 -7 6 -17 rcurveline
          17 42 60 4 36 hhcurveto
          21 20 -2 -3 23 hvcurveto
          2 16 -18 8 -36 10 -21 4 rlinecurve
          endchar
        </CharString>
        <CharString name="six">
          -44 -15 61 224 52 214 -20 hstem
          53 78 150 75 vstem
          131 176 rmoveto
          149 86 111 124 84 vhcurveto
          -11 16 rlineto
          -152 -71 -125 -138 -167 vvcurveto
          -98 41 -77 98 vhcurveto
          68 20 74 70 22 67 rrcurveto
          108 -29 72 -108 vhcurveto
          -16 -18 -17 -16 -20 -14 rrcurveto
          -6 vlineto
          1 10 9 1 9 hhcurveto
          71 16 -54 -71 -26 -5 -30 -10 -25 hvcurveto
          -12 -13 -21 -6 -21 hhcurveto
          -69 -11 61 69 hvcurveto
          endchar
        </CharString>
        <CharString name="slash">
          -50 -20 -21 747 -20 hstem
          50 -41 rmoveto
          239 532 44 99 29 65 25 48 rlinecurve
          -4 3 -17 -4 -22 -3 -17 -1 rlinecurve
          -31 -80 -27 -63 -35 -78 -135 -299 rcurveline
          -26 -57 -37 -76 -29 -56 9 -12 15 -12 14 -6 rrcurveto
          endchar
        </CharString>
        <CharString name="space">
          -279 endchar
        </CharString>
        <CharString name="sterling">
          -68 4 -21 25 61 190 34 245 -20 hstem
          82 71 vstem
          199 477 rmoveto
          -12 callgsubr
          -87 -62 -49 -81 -18 -104 rrcurveto
          -46 hlineto
          -14 -40 7 -5 49 3 rlineto
          -36 5 -43 -36 vvcurveto
          -58 -21 -35 -40 -42 vhcurveto
          9 -6 rlineto
          13 19 18 2 27 hhcurveto
          65 100 -11 -14 52 hvcurveto
          8 12 rlineto
          -9 14 -3 12 18 vvcurveto
          31 8 36 12 30 vhcurveto
          -14 7 -13 -18 -12 -25 -10 -22 rlinecurve
          -7 -15 -20 -2 -19 hhcurveto
          -37 -42 4 8 -38 hvcurveto
          31 46 13 71 56 vvcurveto
          138 11 15 35 -7 5 -45 -5 -50 -5 -49 -2 rlinecurve
          61 17 73 29 50 vhcurveto
          endchar
        </CharString>
        <CharString name="t">
          -59 6 -21 498 38 -38 53 34 -20 hstemhm
          -7 232 -60 60 hintmask 11011000
          130 536 rmoveto
          -62 -23 -75 -70 -65 vvcurveto
          -16 7 -12 16 -1 vhcurveto
          13 16 17 15 16 8 1 6 rcurveline
          -7 8 -1 13 11 vvcurveto
          9 2 16 3 8 vhcurveto
          21 21 40 4 39 -1 rrcurveto
          hintmask 11010100
          3 -37 2 -48 -31 vvcurveto
          -111 -10 -184 -18 -83 -33 callsubr
          35 4 29 1 rlinecurve
          -6 30 -3 83 43 vvcurveto
          93 7 140 14 93 vhcurveto
          32 -2 53 -7 31 -10 16 -5 rcurveline
          5 41 10 30 24 34 -15 10 rcurveline
          -18 -15 -12 -13 -15 -18 rrcurveto
          -2 -7 -16 -1 -7 hhcurveto
          hintmask 10111000
          -60 -77 11 4 -60 hvcurveto
          endchar
        </CharString>
        <CharString name="thorn">
          -7 6 -21 156 31 221 34 94 -20 30 19 callgsubr
          149 80 hintmask 11101110
          11 callgsubr
          hintmask 11110110
          -94 callgsubr
          64 3 89 6 80 vhcurveto
          1 hlineto
          21 callsubr
          91 -65 28 -83 -22 -22 -1 -2 -24 hvcurveto
          4 41 5 36 6 26 rrcurveto
          endchar
        </CharString>
        <CharString name="three">
          -44 6 -21 301 52 123 57 29 -20 hstem
          272 78 vstem
          195 39 rmoveto
          -35 13 -53 48 37 vvcurveto
          13 2 9 6 15 55 callsubr
          18 -25 28 -38 50 -41 45 -12 rlinecurve
          77 46 101 99 90 vvcurveto
          82 -44 30 -81 6 vhcurveto
          3 vlineto
          56 47 43 53 32 66 -5 14 rcurveline
          -3 -24 -37 0 -25 hhcurveto
          -53 -70 0 29 -44 hvcurveto
          -10 -11 rlineto
          8 -13 3 -16 -16 vvcurveto
          -34 -8 -31 -13 -32 vhcurveto
          14 -7 14 19 15 29 10 22 rlinecurve
          4 7 11 0 9 hhcurveto
          38 44 -5 -8 37 hvcurveto
          -33 -58 -61 -61 -61 -27 7 -19 rcurveline
          2 9 14 1 8 hhcurveto
          72 40 -31 -72 -56 -30 -57 -47 -31 hvcurveto
          endchar
        </CharString>
        <CharString name="threequarters">
          61 callsubr
          322 44 83 48 47 -20 hstemhm
          203 68 321 58 hintmask 11011111
          149 306 -66 callgsubr
          -46 -348 -42 callgsubr
          hintmask 10111111
          -46 callsubr
          endchar
        </CharString>
        <CharString name="threesuperior">
          -84 361 -21 221 44 83 48 21 -20 hstem
          225 68 vstem
          171 385 -66 callgsubr
          endchar
        </CharString>
        <CharString name="tilde">
          -147 590 65 -32 32 33 67 callgsubr
          17 599 rmoveto
          16 15 19 8 22 hhcurveto
          hintmask 10100000
          -91 callsubr
        </CharString>
        <CharString name="tilde.cap">
          -147 747 65 -32 32 33 67 callgsubr
          17 756 rmoveto
          16 15 19 8 22 hhcurveto
          hintmask 10100000
          -91 callsubr
        </CharString>
        <CharString name="two">
          -44 5 -21 24 59 408 61 hstemhm
          263 58 -58 90 hintmask 11110000
          230 536 rmoveto
          -73 -16 -87 -69 -74 vvcurveto
          -16 11 -16 18 -1 vhcurveto
          13 17 15 15 17 12 1 7 rcurveline
          -9 8 -2 8 15 vvcurveto
          10 5 21 3 5 vhcurveto
          8 15 22 5 17 hhcurveto
          47 20 -42 -47 -133 -187 -93 -51 -171 hvcurveto
          11 -5 rlineto
          24 30 40 0 46 hhcurveto
          43 88 -4 -10 42 hvcurveto
          8 13 rlineto
          -8 12 -4 12 16 vvcurveto
          37 7 29 14 36 vhcurveto
          -13 6 -15 -19 -13 -28 -10 -23 rlinecurve
          -16 -32 -34 -2 -36 hhcurveto
          -30 -30 1 3 -26 hvcurveto
          hintmask 11101000
          70 107 123 80 57 112 rrcurveto
          86 -37 80 -86 vhcurveto
          endchar
        </CharString>
        <CharString name="twosuperior">
          -114 357 49 -46 -21 352 57 hstemhm
          63 215 -75 55 hintmask 10110000
          278 625 -18 callsubr
          hintmask 01101000
          42 callsubr
          hintmask 10101000
          -21 callsubr
          hintmask 10110000
          62 callsubr
        </CharString>
        <CharString name="u">
          79 65 callgsubr
          94 71 194 60 hintmask 10111000
          -96 callsubr
          hintmask 11011000
          -53 callsubr
          endchar
        </CharString>
        <CharString name="uacute">
          -71 callsubr
          302 501 -74 callsubr
        </CharString>
        <CharString name="ucircumflex">
          79 -35 callsubr
          69 -21 167 -68 callgsubr
          177 476 -72 callsubr
        </CharString>
        <CharString name="udieresis">
          79 -35 callsubr
          83 -21 123 -68 callgsubr
          314 479 -102 callgsubr
        </CharString>
        <CharString name="ugrave">
          -71 callsubr
          242 402 -62 callgsubr
        </CharString>
        <CharString name="underscore">
          201 -185 56 callgsubr
          644 -146 43 callgsubr
          -236 49 callsubr
          606 hlineto
          endchar
        </CharString>
        <CharString name="v">
          8 -39 callsubr
          51 -20 hstem
          108 60 173 -43 callsubr
          rlineto
          95 129 80 167 160 vvcurveto
          35 -7 52 -26 22 vhcurveto
          -17 -18 -31 -14 -21 -12 rrcurveto
          -6 vlineto
          20 -18 5 -48 -26 vvcurveto
          -129 -31 -114 -59 -115 vhcurveto
          endchar
        </CharString>
        <CharString name="w">
          204 6 -21 514 22 35 -20 hstem
          108 60 157 77 123 -43 callsubr
          19 28 19 31 17 32 rlinecurve
          35 -44 37 -27 53 -22 4 2 rcurveline
          95 124 80 180 156 vvcurveto
          18 -2 21 -6 16 vhcurveto
          16 11 12 13 12 15 -6 15 rcurveline
          -27 -50 -76 -8 -58 hhcurveto
          -82 -37 1 3 -37 hvcurveto
          -1 -15 rlineto
          29 -10 9 -47 -43 vvcurveto
          -126 -22 -117 -52 -115 vhcurveto
          209 447 rmoveto
          51 14 -29 -60 -121 -36 -130 -54 -107 hvcurveto
          -39 13 -47 38 -20 37 rrcurveto
          44 99 29 107 97 vvcurveto
          14 -2 18 -3 18 vhcurveto
          3 18 26 3 19 hhcurveto
          endchar
        </CharString>
        <CharString name="x">
          -24 37 callgsubr
          hstemhm
          hintmask 11000000
          147 53 callsubr
          -39 0 -61 hhcurveto
          -1 40 callsubr
          32 -6 67 callsubr
          38 -64 23 -46 38 -77 rcurveline
          -61 -76 -79 -105 -20 -92 24 6 47 3 23 1 3 4 rcurveline
          -3 9 -1 9 9 vvcurveto
          48 26 63 26 40 vhcurveto
          31 48 39 -78 35 -79 25 -80 rlinecurve
          6 -2 28 6 46 4 28 1 rlinecurve
          -35 56 -41 80 -26 50 -16 30 -18 32 -17 34 rrcurveto
          hintmask 10100000
          59 74 72 88 21 92 -23 -6 -47 -3 -24 -1 -3 -4 rcurveline
          3 -9 1 -9 -9 vvcurveto
          -48 -29 -56 -25 -41 vhcurveto
          -22 -35 -37 73 -33 77 -15 69 rlinecurve
          endchar
        </CharString>
        <CharString name="y">
          64 callsubr
          hstemhm
          161 63 hintmask 10110000
          16 callgsubr
          hintmask 11010000
          -75 callgsubr
          endchar
        </CharString>
        <CharString name="yacute">
          64 callsubr
          73 -21 hstemhm
          161 63 hintmask 10101000
          16 callgsubr
          hintmask 11001000
          -75 callgsubr
          hintmask 00010000
          117 414 -74 callsubr
        </CharString>
        <CharString name="ydieresis">
          64 callsubr
          82 38 callgsubr
          161 63 hintmask 10100100
          16 callgsubr
          hintmask 11000100
          -75 callgsubr
          hintmask 00011000
          129 392 -102 callgsubr
        </CharString>
        <CharString name="yen">
          1 6 -21 160 27 46 27 288 -20 hstem
          189 63 vstem
          255 251 rmoveto
          58 78 86 107 18 97 -24 -6 -42 -4 -24 -1 -3 -4 rcurveline
          4 -9 1 -10 -9 vvcurveto
          -53 -26 -56 -26 -46 vhcurveto
          -33 -59 -43 99 -29 102 -10 55 rlinecurve
          -59 -10 -41 0 -60 1 -1 -14 rcurveline
          18 -6 26 -5 23 -3 28 -44 33 -72 21 -46 14 -30 12 -29 13 -27 -79 -4 34 callsubr
          22 3 43 4 44 2 rrcurveto
          -14 -1 -15 -1 -13 vhcurveto
          -82 -4 35 callsubr
          rlinecurve
          3 -4 21 3 43 3 40 2 rlinecurve
          -5 -66 -7 -56 -7 -31 50 callgsubr
          28 7 29 3 29 2 rrcurveto
          -6 28 -3 76 43 vvcurveto
          95 3 1 callsubr
          rlineto
          -3 -25 -37 -3 -45 hhcurveto
          40 vlineto
          95 3 1 callsubr
          rlineto
          -3 -25 -34 -2 -45 hhcurveto
          endchar
        </CharString>
        <CharString name="z">
          -105 -23 -21 520 39 28 -20 hstem
          367 532 rmoveto
          -15 10 rlineto
          -20 -16 -25 -7 -26 hhcurveto
          -34 -33 13 15 -33 hvcurveto
          -54 -17 -115 -76 -56 vvcurveto
          -10 3 -9 11 -5 vhcurveto
          17 13 18 8 20 6 3 6 rcurveline
          -2 6 -1 6 7 vvcurveto
          14 6 24 9 12 vhcurveto
          3 9 14 1 9 hhcurveto
          44 28 -12 -15 40 hvcurveto
          7 1 6 2 5 3 3 -2 rcurveline
          -174 -283 -70 -123 -29 -42 -16 -16 rlinecurve
          11 -11 rlineto
          19 16 20 9 24 hhcurveto
          41 60 -28 -22 37 hvcurveto
          56 9 119 69 55 vvcurveto
          12 -5 10 -12 4 vhcurveto
          -15 -12 -21 -9 -18 -5 -2 -5 rcurveline
          1 -5 1 -8 -5 vvcurveto
          -13 -4 -21 -10 -9 vhcurveto
          -47 -63 13 23 -43 hvcurveto
          -6 -1 -7 -3 -5 -2 -4 2 rcurveline
          166 304 55 105 31 50 15 18 rlinecurve
          endchar
        </CharString>
        <CharString name="zero">
          -44 6 -21 551 -20 hstem
          111 179 vstem
          212 510 rmoveto
          64 -32 14 -122 -79 vvcurveto
          -77 -18 -161 -84 -28 vhcurveto
          -64 32 -13 112 79 vvcurveto
          77 17 171 84 28 vhcurveto
          -193 -265 rmoveto
          -139 14 57 -121 96 hhcurveto
          85 76 105 185 35 hvcurveto
          139 -14 -58 122 -96 hhcurveto
          -85 -75 -106 -185 -35 hvcurveto
          endchar
        </CharString>
      <CharString index="0">
        -107 callsubr
        14 6 23 6 12 vhcurveto
        return
      </CharString>
      <CharString index="1">
        -11 18 -22 27 -16 10 -18 -10 -31 -27 -10 -18 9 -19 21 -36 18 -13 19 13 30 36 11 19 rrcurveto
        return
      </CharString>
      <CharString index="2">
        -84 -78 -107 callgsubr
        return
      </CharString>
      <CharString index="3">
        hvcurveto
        -106 callsubr
        return
      </CharString>
      <CharString index="4">
        24 callsubr
        hintmask 1010100110000000
        -69 callsubr
        hintmask 1011000110000000
        9 callsubr
        hintmask 1010100110000000
        -85 callsubr
        hintmask 1011000110000000
        -67 callgsubr
        hintmask 0111000110000000
        -83 callgsubr
        hintmask 1011000110000000
        -90 callgsubr
        hintmask 0000011000000000
        return
      </CharString>
      <CharString index="5">
        -104 callsubr
        endchar
      </CharString>
      <CharString index="6">
        -30 -35 -101 callsubr
        return
      </CharString>
      <CharString index="7">
        -20 -23 callsubr
        hintmask 1100101110000000
        -99 callsubr
        hintmask 1100110110000000
        -89 callsubr
        hintmask 0011000000000000
        return
      </CharString>
      <CharString index="8">
        -71 -29 -84 -84 -78 -77 callsubr
        return
      </CharString>
      <CharString index="9">
        hvcurveto
        -100 callsubr
        return
      </CharString>
      <CharString index="10">
        -98 callgsubr
        -167 -16 -220 -19 -80 vhcurveto
        6 -5 -59 callgsubr
        rlinecurve
        -8 37 -3 103 52 vvcurveto
        return
      </CharString>
      <CharString index="11">
        340 317 -98 callsubr
        return
      </CharString>
      <CharString index="12">
        -65 -82 1 7 -60 -97 callgsubr
        120 9 185 18 114 vhcurveto
        return
      </CharString>
      <CharString index="13">
        -10 -59 -37 0 -60 hhcurveto
        -2 -17 17 -7 34 -6 -86 callgsubr
        29 2 rlinecurve
        -7 28 callsubr
        41 vvcurveto
        return
      </CharString>
      <CharString index="14">
        -93 callsubr
        -59 callgsubr
        rlinecurve
        -54 callgsubr
        return
      </CharString>
      <CharString index="15">
        -67 callsubr
        -13 -2 -20 -7 -11 -6 rrcurveto
        return
      </CharString>
      <CharString index="16">
        212 613 rmoveto
        -4 13 -4 14 4 14 -6 5 rcurveline
        -6 -11 -10 -2 -17 hhcurveto
        -28 -27 -101 callsubr
        41 31 41 -52 callgsubr
        -11 -3 -10 -4 -13 -8 rrcurveto
        4 -32 2 -43 -57 vvcurveto
        -167 -15 -219 -19 -80 -30 callsubr
        28 4 36 17 callgsubr
        37 -18 209 267 vvcurveto
        4 2 24 -37 18 -32 14 -26 rlinecurve
        95 -176 82 -153 32 -101 7 -3 rcurveline
        21 6 33 5 21 2 rrcurveto
        -8 47 -7 87 72 vvcurveto
        172 17 203 19 80 vhcurveto
        return
      </CharString>
      <CharString index="17">
        -86 513 rmoveto
        10 32 17 46 21 27 rrcurveto
        2 10 10 63 callgsubr
        8 18 -1 -2 8 hvcurveto
        4 -47 2 -46 -38 vvcurveto
        -51 -2 -84 -3 -65 vhcurveto
        -6 -25 -38 -2 -35 hhcurveto
        -32 -38 1 6 -22 hvcurveto
        return
      </CharString>
      <CharString index="18">
        -103 -107 callgsubr
        8 13 20 4 15 hhcurveto
        57 24 -31 -57 -55 -25 -70 -41 -38 hvcurveto
        -16 -27 -40 -5 -31 hhcurveto
        -103 -59 63 103 return
      </CharString>
      <CharString index="19">
        2 6 -47 -104 callgsubr
        return
      </CharString>
      <CharString index="20">
        vvcurveto
        16 -11 14 -16 1 vhcurveto
        -16 -17 -16 -14 -18 -11 -1 -7 rcurveline
        9 -10 1 -16 -13 vvcurveto
        -14 -6 -23 -6 -12 vhcurveto
        return
      </CharString>
      <CharString index="21">
        18 -2 rlinecurve
        5 -47 callgsubr
        -57 callsubr
        35 3 return
      </CharString>
      <CharString index="22">
        80 -30 callgsubr
        115 -21 134 -103 callgsubr
        return
      </CharString>
      <CharString index="23">
        77 20 78 53 79 vvcurveto
        17 -10 9 -17 1 vhcurveto
        -12 -15 -16 -12 -17 -9 -1 -5 rcurveline
        8 -8 1 -13 -11 vvcurveto
        -11 -2 -15 -5 -10 vhcurveto
        -12 -20 -24 -5 -23 hhcurveto
        return
      </CharString>
      <CharString index="24">
        -42 callsubr
        6 47 20 75 vhcurveto
        26 6 44 1 36 -1 rrcurveto
        34 37 -2 -4 24 hvcurveto
        -6 -92 -9 -90 -12 -54 rrcurveto
        return
      </CharString>
      <CharString index="25">
        150 1 callgsubr
        110 -21 134 -97 callsubr
        return
      </CharString>
      <CharString index="26">
        vvcurveto
        15 3 20 8 14 vhcurveto
        17 26 27 8 31 hhcurveto
        43 31 -12 -26 35 hvcurveto
        7 hlineto
        12 29 16 30 20 24 rrcurveto
        19 -44 -41 4 -47 hhcurveto
        -88 -25 -77 -56 -47 -79 rrcurveto
        return
      </CharString>
      <CharString index="27">
        2 23 24 1 24 hhcurveto
        78 24 -46 -70 -3 callgsubr
        9 9 0 1 9 hvcurveto
        71 -129 66 -143 14 -66 7 -3 rcurveline
        33 8 41 4 35 2 -29 35 -53 94 -26 44 -25 42 -33 61 -33 65 rrcurveto
        80 28 57 65 93 vvcurveto
        104 -66 20 -103 vhcurveto
        return
      </CharString>
      <CharString index="28">
        184 53 callsubr
        -31 0 -60 -6 callsubr
        4 -28 4 -34 -63 vvcurveto
        -134 -12 -57 callsubr
        30 57 callsubr
        -14 158 215 vvcurveto
        3 1 19 -29 15 -26 11 -21 rlinecurve
        76 -142 66 -113 26 -81 6 -2 rcurveline
        17 4 33 4 17 2 rrcurveto
        -6 38 -6 70 58 vvcurveto
        138 14 164 15 64 vhcurveto
        return
      </CharString>
      <CharString index="29">
        -35 callgsubr
        77 -21 6 callsubr
        hintmask 10110001
        -81 callsubr
        hintmask 10101010
        -65 callgsubr
        hintmask 01110010
        -84 callsubr
        hintmask 10110010
        -90 callsubr
        hintmask 00000100
        return
      </CharString>
      <CharString index="30">
        rmoveto
        31 20 -19 -31 -18 -7 -22 -10 -12 hvcurveto
        -6 -7 -10 -3 -14 hhcurveto
        -32 -19 17 32 18 7 23 10 12 hvcurveto
        6 8 9 3 14 hhcurveto
        -98 -82 rmoveto
        -44 42 -20 47 vhcurveto
        58 17 52 41 62 vvcurveto
        44 -34 17 -49 vhcurveto
        -60 -17 -56 -41 -59 vvcurveto
        return
      </CharString>
      <CharString index="31">
        -35 -9 -31 -4 -36 -2 rrcurveto
        8 -37 3 -103 -52 vvcurveto
        -69 -3 -92 -6 -88 vhcurveto
        -35 -57 -47 -56 -54 -36 rrcurveto
        -95 17 -1 99 96 vvcurveto
        104 8 122 27 152 -5 callsubr
        return
      </CharString>
      <CharString index="32">
        -6 -23 -47 -5 -23 hhcurveto
        -3 -4 rlineto
        4 -9 2 -10 -9 vvcurveto
        -46 -26 -52 -24 -41 vhcurveto
        -41 -66 -42 98 -31 92 -13 57 rlinecurve
        -10 -60 -38 0 -60 hhcurveto
        -2 -16 17 -7 35 -7 67 callsubr
        33 -66 22 -46 45 -100 rcurveline
        -5 -101 -9 -98 -11 -45 50 callgsubr
        27 7 35 4 29 1 rrcurveto
        -6 30 -2 82 42 vvcurveto
        29 0 32 1 37 vhcurveto
        return
      </CharString>
      <CharString index="33">
        92 80 29 92 vhcurveto
        5 31 rlineto
        -81 8 -62 36 82 vvcurveto
        11 2 15 5 10 vhcurveto
        13 21 24 7 25 hhcurveto
        35 27 -12 -21 28 hvcurveto
        6 hlineto
        9 24 15 28 17 19 rrcurveto
        return
      </CharString>
      <CharString index="34">
        0 callsubr
        69 -21 24 callgsubr
        hintmask 10100100
        -55 callgsubr
        hintmask 10101000
        -83 callsubr
        hintmask 01100010
        -74 callgsubr
        hintmask 00010000
        return
      </CharString>
      <CharString index="35">
        157 7 155 31 145 -55 callsubr
        return
      </CharString>
      <CharString index="36">
        rmoveto
        125 -77 15 12 -54 45 -33 46 -23 62 rlinecurve
        -22 hlineto
        -33 -57 -57 -55 -52 -39 11 -16 rcurveline
        endchar
      </CharString>
      <CharString index="37">
        rmoveto
        32 9 36 4 34 69 callsubr
        37 -4 92 65 vvcurveto
        167 15 213 19 80 -5 callsubr
        return
      </CharString>
      <CharString index="38">
        5 callsubr
        115 18 callgsubr
        62 hintmask 11000110
        173 192 -94 callsubr
        hintmask 00011000
        return
      </CharString>
      <CharString index="39">
        -20 36 callgsubr
        hintmask 10100110
        -96 callsubr
        hintmask 11000110
        -53 callsubr
        hintmask 00011000
        return
      </CharString>
      <CharString index="40">
        -52 callsubr
        -208 -596 rcurveline
        7 -8 rlineto
        return
      </CharString>
      <CharString index="41">
        rmoveto
        -26 10 -42 35 28 vvcurveto
        9 1 2 5 11 vhcurveto
        -10 4 -18 -25 -11 -12 -23 -21 rlinecurve
        13 -18 21 -29 40 -30 33 -9 rlinecurve
        57 34 82 73 67 vvcurveto
        62 -37 25 -60 4 vhcurveto
        3 vlineto
        43 33 35 40 23 47 -4 11 rcurveline
        -2 -17 -35 -1 -18 hhcurveto
        -39 -52 0 21 -33 hvcurveto
        -7 -8 rlineto
        5 -10 2 -12 -11 vvcurveto
        -26 -5 -23 -10 -23 vhcurveto
        13 -6 10 14 9 17 8 16 rlinecurve
        2 6 11 1 7 hhcurveto
        28 24 -3 -6 28 hvcurveto
        -25 -41 -44 -39 -43 -20 6 -20 rcurveline
        1 7 10 1 6 hhcurveto
        53 27 -21 -53 -42 -19 -37 -35 -23 hvcurveto
        return
      </CharString>
      <CharString index="42">
        -41 -66 1 6 -39 hvcurveto
        -58 callsubr
        return
      </CharString>
      <CharString index="43">
        hhcurveto
        -84 callgsubr
        -69 -13 45 69 -1 hvcurveto
        31 0 31 -40 callgsubr
        61 9 52 rrcurveto
        -24 callsubr
        return
      </CharString>
      <CharString index="44">
        6 17 20 3 20 hhcurveto
        62 20 -36 -62 -76 -41 -35 -76 hvcurveto
        -3 -31 rlineto
        8 9 0 1 7 hvcurveto
        58 -104 50 -112 11 -53 -26 callsubr
        -19 34 -27 48 -28 52 rrcurveto
        60 24 52 55 72 vvcurveto
        return
      </CharString>
      <CharString index="45">
        rmoveto
        10 17 -46 31 -66 56 -27 49 rlinecurve
        -11 1 -18 0 -9 -2 -9 -10 -13 -31 -1 -12 rrcurveto
        endchar
      </CharString>
      <CharString index="46">
        173 192 -9 callgsubr
        return
      </CharString>
      <CharString index="47">
        rmoveto
        -9 19 -21 24 -14 10 -17 -9 -33 -27 -9 -17 8 -15 15 -20 12 -11 -5 -29 -24 -25 -24 -18 10 -13 rcurveline
        52 28 50 44 9 59 rrcurveto
        endchar
      </CharString>
      <CharString index="48">
        35 9 31 4 36 2 return
      </CharString>
      <CharString index="49">
        rmoveto
        -56 callsubr
        return
      </CharString>
      <CharString index="50">
        6 -5 rcurveline
        -59 callgsubr
        rrcurveto
        -54 callgsubr
        return
      </CharString>
      <CharString index="51">
        -63 -75 -9 -88 hhcurveto
        -1 -16 17 -7 33 -7 -86 callgsubr
        30 17 callgsubr
        -13 callgsubr
        97 8 148 15 91 vhcurveto
        return
      </CharString>
      <CharString index="52">
        358 515 rmoveto
        18 -37 -24 3 -40 hhcurveto
        -73 -18 -82 -47 -39 -65 rrcurveto
        -71 69 -42 71 -10 vhcurveto
        -3 vlineto
        return
      </CharString>
      <CharString index="53">
        -8 37 -3 103 52 vvcurveto
        return
      </CharString>
      <CharString index="54">
        26 callgsubr
        49 -21 hstemhm
        19 callsubr
        hintmask 11011000
        -96 callgsubr
        hintmask 00100000
        return
      </CharString>
      <CharString index="55">
        3 -67 callsubr
        return
      </CharString>
      <CharString index="56">
        -8 callsubr
        -47 callsubr
        return
      </CharString>
      <CharString index="57">
        rmoveto
        436 552 68 86 45 57 36 41 rlinecurve
        -4 3 -17 1 -19 2 -16 4 rlinecurve
        -51 -70 -41 -55 -54 -68 -278 -351 rcurveline
        -39 -50 -56 -63 -42 -48 6 -15 9 -15 12 -10 rrcurveto
        return
      </CharString>
      <CharString index="58">
        -100 callsubr
        -99 -6 -147 -12 -112 vhcurveto
        -19 callgsubr
        return
      </CharString>
      <CharString index="59">
        -33 callsubr
        35 3 return
      </CharString>
      <CharString index="60">
        48 callgsubr
        -135 -13 return
      </CharString>
      <CharString index="61">
        -51 callsubr
        vvcurveto
        return
      </CharString>
      <CharString index="62">
        rmoveto
        4 35 37 2 35 hhcurveto
        35 30 -2 -4 35 hvcurveto
        -3 -100 -10 -108 -13 -60 -21 callgsubr
        -6 30 -3 65 callsubr
        19 83 vhcurveto
        -5 4 -29 -27 callsubr
        -19 -1 -17 -21 vvcurveto
        -6 -34 -33 -3 -34 hhcurveto
        -35 -35 4 5 -35 hvcurveto
        5 86 8 82 11 51 -5 4 rcurveline
        return
      </CharString>
      <CharString index="63">
        rmoveto
        -7 -135 -21 -97 -104 -87 11 -15 rcurveline
        74 39 94 78 35 76 rrcurveto
        -7 58 -2 63 58 vvcurveto
        -72 callgsubr
        return
      </CharString>
      <CharString index="64">
        233 -115 rmoveto
        97 46 69 107 25 105 -14 callsubr
        -55 -26 -68 -46 -30 vhcurveto
        -124 -34 128 147 130 31 126 71 118 hvcurveto
        34 36 -29 callgsubr
        return
      </CharString>
      <CharString index="65">
        -50 callgsubr
        480 76 rmoveto
        -31 callsubr
        -1 -15 callgsubr
        return
      </CharString>
      <CharString index="66">
        -10 -58 -36 0 -62 -7 callgsubr
        -44 -42 vvcurveto
        -74 -5 -97 -6 -73 vhcurveto
        return
      </CharString>
      <CharString index="67">
        2 38 vhcurveto
        2 10 18 1 11 hhcurveto
        32 40 -3 -7 33 hvcurveto
        3 19 3 23 7 17 -4 5 rcurveline
        -9 -27 -39 -6 -27 hhcurveto
        -16 -25 2 4 -17 hvcurveto
        3 69 4 return
      </CharString>
      <CharString index="68">
        -29 callsubr
        -5 4 return
      </CharString>
      <CharString index="69">
        -46 callgsubr
        -167 -16 -220 -33 callgsubr
        return
      </CharString>
      <CharString index="70">
        -5 -14 -7 -12 -8 -13 rrcurveto
        -12 23 35 -9 26 hhcurveto
        40 13 38 33 23 36 rrcurveto
        53 7 -35 31 -53 hhcurveto
        -3 3 34 62 -29 -2 -61 -107 rlineto
        endchar
      </CharString>
      <CharString index="71">
        -6 5 rcurveline
        -47 callsubr
        -30 -35 3 5 -28 -98 callgsubr
        return
      </CharString>
      <CharString index="72">
        26 6 -21 32 -21 182 36 307 -20 27 -20 return
      </CharString>
      <CharString index="73">
        9 -18 25 -28 14 -9 18 9 31 28 12 18 -7 16 -18 25 -12 12 7 45 32 51 33 33 -8 10 rcurveline
        -60 -39 -64 -79 -12 -74 rrcurveto
        return
      </CharString>
      <CharString index="74">
        -19 -80 vhcurveto
        6 -5 return
      </CharString>
      <CharString index="75">
        31 1 33 -7 31 -14 20 -9 -64 callsubr
        return
      </CharString>
      <CharString index="76">
        -11 -61 -35 0 -61 11 callsubr
        33 -5 52 callgsubr
        -47 callgsubr
        -178 -15 -64 vhcurveto
        5 -4 rlineto
        return
      </CharString>
      <CharString index="77">
        6 -21 35 -21 233 37 341 41 8 -20 return
      </CharString>
      <CharString index="78">
        -7 -14 32 hvcurveto
        25 -11 -36 callsubr
        return
      </CharString>
      <CharString index="79">
        -131 -50 -78 -156 -140 vvcurveto
        return
      </CharString>
      <CharString index="80">
        hvcurveto
        -5 callgsubr
        102 27 -98 -102 return
      </CharString>
      <CharString index="81">
        -34 -9 -29 -4 -36 -2 rrcurveto
        8 -37 18 -197 -267 vvcurveto
        -3 -1 -44 80 -75 133 -81 149 -34 102 rlinecurve
        return
      </CharString>
      <CharString index="82">
        -21 536 -20 return
      </CharString>
      <CharString index="83">
        -10 -59 -37 0 -59 11 callsubr
        32 -7 52 callgsubr
        -37 1 -47 -39 vvcurveto
        -135 -13 -176 -15 -65 39 callgsubr
        32 1 42 1 32 vhcurveto
        endchar
      </CharString>
      <CharString index="84">
        rmoveto
        -16 callgsubr
        -11 callgsubr
        54 callgsubr
        426 hlineto
        return
      </CharString>
      <CharString index="85">
        159 65 84 192 171 vvcurveto
        return
      </CharString>
      <CharString index="86">
        50 callgsubr
        10 callsubr
        rrcurveto
        return
      </CharString>
      <CharString index="87">
        rmoveto
        118 27 140 116 119 vvcurveto
        return
      </CharString>
      <CharString index="88">
        -5 -40 -8 -24 -14 -15 6 -13 rcurveline
        3 15 12 1 15 hhcurveto
        23 46 -11 -7 22 hvcurveto
        25 -8 rlineto
        return
      </CharString>
      <CharString index="89">
        51 callsubr
        46 474 rmoveto
        -34 callgsubr
        return
      </CharString>
      <CharString index="90">
        -106 -21 235 14 callgsubr
        -41 -32 -46 -33 -30 40 callgsubr
        37 64 74 12 69 rrcurveto
        return
      </CharString>
      <CharString index="91">
        3 callgsubr
        -33 -1 -26 hhcurveto
        return
      </CharString>
      <CharString index="92">
        -2 11 hvcurveto
        4 17 -13 3 -10 4 -12 8 rlinecurve
        return
      </CharString>
      <CharString index="93">
        -7 -13 callgsubr
        return
      </CharString>
      <CharString index="94">
        28 callsubr
        41 vvcurveto
        return
      </CharString>
      <CharString index="95">
        23 -4 35 -11 22 -10 27 -12 rcurveline
        2 -27 6 -24 6 -24 rrcurveto
        14 hlineto
        51 5 57 36 33 vhcurveto
        -6 17 rlineto
        -5 -13 -16 0 -14 hhcurveto
        -23 -46 11 9 -22 hvcurveto
        return
      </CharString>
      <CharString index="96">
        -113 -117 30 callsubr
        -9 -51 return
      </CharString>
      <CharString index="97">
        18 -2 rlinecurve
        return
      </CharString>
      <CharString index="98">
        rmoveto
        -72 callgsubr
        return
      </CharString>
      <CharString index="99">
        6 -21 625 return
      </CharString>
      <CharString index="100">
        -4 callgsubr
        1 return
      </CharString>
      <CharString index="101">
        230 1 110 8 callsubr
        3 -81 1 -212 7 -3 rcurveline
        13 4 19 8 9 5 rrcurveto
        return
      </CharString>
      <CharString index="102">
        12 20 22 4 23 hhcurveto
        return
      </CharString>
      <CharString index="103">
        -6 callsubr
        5 -38 return
      </CharString>
      <CharString index="104">
        -97 -48 -45 -97 hvcurveto
        -3 -30 rlineto
        return
      </CharString>
      <CharString index="105" raw="1">
        811d9065 0b  
      </CharString>
      <CharString index="106">
        hstem
        154 53 -103 callsubr
        return
      </CharString>
      <CharString index="107">
        1 callsubr
        -25 -3 -34 -1 -25 -1 rlinecurve
        return
      </CharString>
      <CharString index="108">
        -8 callgsubr
        39 2 -20 33 -20 return
      </CharString>
      <CharString index="109">
        -94 -27 -154 -55 -77 return
      </CharString>
      <CharString index="110">
        -6 6 rlineto
        -2 -26 return
      </CharString>
      <CharString index="111">
        -20 hstemhm
        -74 68 return
      </CharString>
      <CharString index="112">
        6 12 23 6 14 hhcurveto
        13 16 -1 -9 10 hvcurveto
        7 1 11 18 14 16 17 16 rlinecurve
        16 -1 -14 11 -16 hhcurveto
        return
      </CharString>
      <CharString index="113">
        -39 callsubr
        31 -20 return
      </CharString>
      <CharString index="114">
        453 -21 hstem
        59 432 -9 callsubr
        return
      </CharString>
      <CharString index="115">
        rmoveto
        -125 77 -15 -12 54 -45 33 -46 23 -62 rlinecurve
        22 hlineto
        33 57 57 55 52 39 -11 16 rcurveline
        endchar
      </CharString>
      <CharString index="116">
        83 4 85 28 68 141 83 return
      </CharString>
      <CharString index="117">
        -12 -19 -22 -5 -23 hhcurveto
        return
      </CharString>
      <CharString index="118">
        191 531 rmoveto
        return
      </CharString>
      <CharString index="119">
        41 callgsubr
        60 return
      </CharString>
      <CharString index="120">
        -21 123 -20 return
      </CharString>
      <CharString index="121">
        59 callgsubr
        53 29 callsubr
        return
      </CharString>
      <CharString index="122">
        -35 -50 5 10 -30 hvcurveto
        -160 -121 -59 -162 -202 vvcurveto
        -154 66 -142 134 vhcurveto
        return
      </CharString>
      <CharString index="123">
        225 249 rmoveto
        60 78 88 109 18 96 rrcurveto
        return
      </CharString>
      <CharString index="124">
        2 rlinecurve
        -8 return
      </CharString>
      <CharString index="125">
        -21 134 -20 hstemhm
        -19 callsubr
        return
      </CharString>
      <CharString index="126">
        -20 12 callgsubr
        return
      </CharString>
      <CharString index="127">
        50 callsubr
        -46 -40 return
      </CharString>
      <CharString index="128">
        -56 -74 -9 -88 hhcurveto
        201 -478 rmoveto
        -23 -22 6 8 -20 hvcurveto
        -2 34 -1 36 25 vvcurveto
        return
      </CharString>
      <CharString index="129">
        146 73 rlineto
        -3 9 -2 15 10 vvcurveto
        -4 1 -23 -14 -27 -14 -25 -13 rlinecurve
        -60 -31 rlineto
        return
      </CharString>
      <CharString index="130">
        -28 -28 8 10 -24 hvcurveto
        -3 42 -1 49 31 vvcurveto
        return
      </CharString>
      <CharString index="131">
        hstemhm
        30 80 -47 47 -47 81 return
      </CharString>
      <CharString index="132">
        34 -9 19 callgsubr
        return
      </CharString>
      <CharString index="133">
        14 -15 60 430 61 return
      </CharString>
      <CharString index="134">
        -21 167 -20 return
      </CharString>
      <CharString index="135">
        -29 -46 3 9 -28 hvcurveto
        -120 -78 -64 -127 -143 vvcurveto
        -107 61 -93 108 vhcurveto
        return
      </CharString>
      <CharString index="136">
        29 2 rlinecurve
        return
      </CharString>
      <CharString index="137">
        6 34 callgsubr
        return
      </CharString>
      <CharString index="138">
        rmoveto
        -95 -48 -1 -15 -3 -13 -3 -11 rlinecurve
        4 -3 18 13 41 23 38 19 rlinecurve
        return
      </CharString>
      <CharString index="139">
        -78 -3 callgsubr
        127 105 75 127 113 -66 return
      </CharString>
      <CharString index="140">
        -10 -60 -37 0 -60 11 callsubr
        return
      </CharString>
      <CharString index="141">
        -21 511 25 callgsubr
        return
      </CharString>
      <CharString index="142">
        -8 callsubr
        hintmask 1100001110000000
        return
      </CharString>
      <CharString index="143">
        hstemhm
        94 71 194 60 return
      </CharString>
      <CharString index="144">
        -39 callsubr
        32 -20 return
      </CharString>
      <CharString index="145">
        13 callgsubr
        hstemhm
        return
      </CharString>
      <CharString index="146">
        -15 callsubr
        -14 callgsubr
        return
      </CharString>
      <CharString index="147">
        8 -10 rcurveline
        60 return
      </CharString>
      <CharString index="148">
        hstemhm
        108 return
      </CharString>
      <CharString index="149">
        vlineto
        -62 1 -62 3 -61 3 -9 -51 rcurveline
        54 callgsubr
        186 return
      </CharString>
      <CharString index="150">
        58 callsubr
        -94 -1 -26 hhcurveto
        hintmask 01000000
        -113 return
      </CharString>
      <CharString index="151">
        rmoveto
        -94 9 56 -68 53 hhcurveto
        48 71 52 128 19 hvcurveto
        return
      </CharString>
      <CharString index="152">
        -124 -21 666 -20 30 -20 return
      </CharString>
      <CharString index="153">
        0 -72 61 609 68 return
      </CharString>
      <CharString index="154">
        13 callgsubr
        hstem
        return
      </CharString>
      <CharString index="155">
        -38 1 -46 -40 vvcurveto
        return
      </CharString>
      <CharString index="156">
        52 vvcurveto
        134 return
      </CharString>
      <CharString index="157">
        5 -4 rcurveline
        return
      </CharString>
      <CharString index="158">
        -20 31 -20 41 callgsubr
        59 return
      </CharString>
      <CharString index="159">
        -10 callgsubr
        6 return
      </CharString>
      <CharString index="160">
        35 111 35 hstem
        0 50 99 50 vstem
        98 return
      </CharString>
      <CharString index="161">
        8 -7 rlineto
        return
      </CharString>
      <CharString index="162">
        -4 3 rcurveline
        -2 -10 -23 -3 -11 hhcurveto
        -41 return
      </CharString>
      <CharString index="163">
        42 9 -20 hstemhm
        hintmask 10000000
        return
      </CharString>
      <CharString index="164">
        vvcurveto
        111 10 182 return
      </CharString>
      <CharString index="165">
        5 48 callgsubr
        return
      </CharString>
      <CharString index="166">
        -20 hstem
        159 return
      </CharString>
      <CharString index="167">
        -162 -66 -82 -188 -174 vvcurveto
        return
      </CharString>
      <CharString index="168">
        115 22 89 -14 3 rcurveline
        -18 -55 return
      </CharString>
      <CharString index="169">
        168 -7 callsubr
        15 -20 return
      </CharString>
      <CharString index="170">
        1 13 hhcurveto
        return
      </CharString>
      <CharString index="171">
        -20 hstem
        252 47 vstem
        501 return
      </CharString>
      <CharString index="172">
        -35 callsubr
        hstemhm
        return
      </CharString>
      <CharString index="173">
        hhcurveto
        -40 -77 -59 -122 -20 hvcurveto
        return
      </CharString>
      <CharString index="174">
        -20 hstemhm
        hintmask 01100000
        return
      </CharString>
      <CharString index="175">
        -21 247 -20 hstem
        return
      </CharString>
      <CharString index="176">
        28 7 35 return
      </CharString>
</ttFont>
